<svg id="Layer_1" data-name="Layer 1" xmlns="http://www.w3.org/2000/svg" xmlns:xlink="http://www.w3.org/1999/xlink" viewBox="0 0 508.12 167.21"><defs><style>.cls-1{filter:url(#filter);}.cls-2{fill:#fff;}.cls-3{fill:none;stroke:#fff;stroke-miterlimit:10;stroke-width:2px;}.cls-4{filter:url(#filter-2);}</style><filter id="filter"><feOffset input="SourceAlpha"/><feGaussianBlur stdDeviation="2" result="blur"/><feFlood/><feComposite operator="in" in2="blur"/><feComposite in="SourceGraphic"/></filter><filter id="filter-2"><feOffset input="SourceAlpha"/><feGaussianBlur stdDeviation="2" result="blur-2"/><feFlood/><feComposite operator="in" in2="blur-2"/><feComposite in="SourceGraphic"/></filter></defs><g class="cls-1"><path class="cls-2" d="M82.21,76.11a2.37,2.37,0,0,1,0,1.64c-.26,1.52-.57,3.07-.76,4.59-.3,2.28-.61,4.56-1,6.84-.19,1-.19,2.09-.35,3.16a10.13,10.13,0,0,1-.22,1.52,33.2,33.2,0,0,0-.23,4,21.68,21.68,0,0,0,0,2.28,1.17,1.17,0,0,1-.15.8.71.71,0,0,0,0,.57,1,1,0,0,1-.08.76,4.62,4.62,0,0,1-1.78-.11,1.74,1.74,0,0,1-1.29-1.1,50,50,0,0,1-1.83-6.2c-.3-1.55-.72-3.11-1.06-4.67-.19-.8-.34-1.6-.53-2.39a18.36,18.36,0,0,0-.42,4.1c0,.8-.27,1.56-.23,2.36a25.06,25.06,0,0,1-.3,3.79,34.24,34.24,0,0,1-.46,3.54,9,9,0,0,1-.76,1.52,8.35,8.35,0,0,0-1.25-.53c-.19,0-.42-.23-.57.15a.21.21,0,0,1-.31,0l-.34-.38c-.26.07-.07.45-.42.45-.34-.45-.91-.87-.91-1.55a.45.45,0,0,0-.42-.42c-.6-.12-.79-.53-.87-1.07-.23-1.9-.46-3.79-.64-5.66-.27-2.09-.5-4.18-.61-6.27A16.92,16.92,0,0,0,64,85.57c-.34-1.48-.5-3-.72-4.48-.08-.38-.2-.72-.31-1.1a12.18,12.18,0,0,1-.38-2.62c.15-.19.38,0,.53-.16a.18.18,0,0,0,0-.26c-.15-.76.12-1,.88-.88a1.83,1.83,0,0,1,.83.35c.15.11.27.41.53.26s.84,0,1-.49c0,0,.11,0,.11.07A8.91,8.91,0,0,1,67.78,80c.15,1.94.41,3.84.6,5.74.12.83.08,1.67.19,2.47l.57,4c.16,1,.31,2,.5,3a6,6,0,0,0,.19.72,4,4,0,0,0,.64-2.43,3.59,3.59,0,0,1,.19-1.25c.16-.35.42-.73.19-1.14a.37.37,0,0,1,0-.27c.42-2,.57-3.95.91-5.93.23-1.25.35-2.58.65-3.83a7.93,7.93,0,0,0,.08-1.37c0-.42.6-.76.87-.46s.72.19,1.06.19c.54,0,.54,0,.61.5.11.79.34,1.55.49,2.35.27,1.29.42,2.58.73,3.84.49,1.94.83,3.87,1.25,5.77.15.8.34,1.56.57,2.36.15,0,.15-.19.15-.27.08-.87.38-1.71.38-2.62A24.71,24.71,0,0,1,79,88c.08-.61.08-1.26.12-1.9a6.17,6.17,0,0,1,.45-2,18.07,18.07,0,0,0,.61-2.54,44.64,44.64,0,0,1,.91-4.37,4.45,4.45,0,0,0,.12-1,.49.49,0,0,1,.49-.53C82,75.62,82.1,75.81,82.21,76.11Z"/><path class="cls-2" d="M89.66,76.53a.32.32,0,0,0,.27,0c1.6-.27,3.23-.23,4.83-.49.41,0,.83-.16,1.25-.16a2.27,2.27,0,0,1,2,1.33,10.31,10.31,0,0,1-2.62.42c-.87,0-1.71-.07-2.58,0s-1.6.27-2.39.31c-.23,0-.35.15-.42.38a8.59,8.59,0,0,0,.11,3.27,11.41,11.41,0,0,1,0,1.17,37,37,0,0,0,0,4.94c1.26-.19,2.47.15,3.69,0,.61-.11,1,.42,1.44.76a1.52,1.52,0,0,1-.83.46,3.75,3.75,0,0,0-1.11.27,9.48,9.48,0,0,1-2.73.38c-.5,0-.5,0-.46.53,0,.91,0,1.82,0,2.77a25.44,25.44,0,0,0-.11,3,3.2,3.2,0,0,1-.12,1.06,8.1,8.1,0,0,0-.19,2.82c.08.38.23.49.57.45a3.32,3.32,0,0,1,.84,0,.26.26,0,0,1,.19.27c-.42.38-1.18,0-1.63.53a.87.87,0,0,0,.76,0c1.33-.34,2.66-.53,4-.91.68-.19,1.4-.07,2.09-.23a.7.7,0,0,1,.53.16c.23.22.45.41.68.6-.23.31-.65.16-.91.35-.08.22.15.34.23.53s.11.49-.23.49a5.3,5.3,0,0,0-1.71.38,6.88,6.88,0,0,1-1.25.19,17.31,17.31,0,0,0-3.46.23c-.31.08-.57.08-.65.53s-.26.34-.53.12-.57-.12-.87-.08a24.48,24.48,0,0,1-4.45.3c-.23,0-.42-.19-.65-.26a.37.37,0,0,1-.22-.38.3.3,0,0,1,.3-.34,10.94,10.94,0,0,0,1.9-.61c0-.88,0-1.75,0-2.66.23-2.81.08-5.47.3-8.28s.27-5.51.35-8.25c0-1.37-.08-2.73-.08-4.06,0-.35-.15-.5-.46-.5-.49,0-.41-.26-.91-.34a.6.6,0,0,1-.53-.38,10.79,10.79,0,0,1,1.82-.42,3.66,3.66,0,0,0,.08-.61c0-.38,0-.68.53-.6,0,0,.12,0,.12,0,.68-.65,1.33-.27,2,0A2.23,2.23,0,0,1,89.66,76.53Zm-4,25.34c.6-.07.6-.07.53-.49,0-.27,0-.91-.19-1.18C85.56,100.58,85.71,101.42,85.64,101.87Z"/><path class="cls-2" d="M103.72,75.69c.16,0,.12.27.12.38a9.31,9.31,0,0,1-.08,1.49,36.36,36.36,0,0,0,0,4.55,8,8,0,0,0,0,1.9c0,.27,0,.54.27.73.49-1.45-.12-2.89.11-4.37s0-2.89.19-4.45a1.26,1.26,0,0,1,.38,1.33c0,1,0,2,0,3,0,1.74,0,3.45,0,5.2a27.84,27.84,0,0,0,.26,5.09,31.41,31.41,0,0,1,.65,3.88,20.77,20.77,0,0,1-.27,3.45,5,5,0,0,0-.07.76,2.76,2.76,0,0,1-.31,1.22,1.26,1.26,0,0,0,0,1.22.16.16,0,0,0,.23-.12c.19-.34.19-.38.5-.07a.41.41,0,0,0,.34.11,7,7,0,0,0,1.56-.08c.72-.11,1.44-.15,2.2-.22a2,2,0,0,1,1.14.19,1.25,1.25,0,0,0,.64.07.94.94,0,0,1,.57.08c.2.11.38.26.12.45s-.27.31-.12.54a.18.18,0,0,1-.07.3,2.88,2.88,0,0,1-1.6.49c-.91-.07-1.82.23-2.77.16a27.16,27.16,0,0,0-3.12.15c-1,.11-2.28.07-3.26.26-.69.12-1.18-.22-1.52-1,.38-.31,1.06,0,1.25-.61,0-.19-.23-.27-.34-.42a2.38,2.38,0,0,1-.57-1.22c-.12-2.28,0-4.55-.15-6.8-.12-1.9-.08-3.8-.16-5.7s-.15-4-.19-6c0-1.59.08-3.23-.07-4.82a.4.4,0,0,1,.45-.5c.61.08,1-.42,1.6-.45.11,0,.19-.12.27-.23.19-.5.57-.57,1-.61C103.23,75.24,103.31,75.62,103.72,75.69Zm-2,25.84c0,.08,0,.11.08.11s.19,0,.23-.19,0-.19-.16-.19S101.71,101.42,101.67,101.53Z"/><path class="cls-2" d="M126.45,76.42a2.47,2.47,0,0,1,1.17,2.09c.08,1.55.23,6.72-.72,5.47-.53-.69-.19.41-.45.68s-.16.46-.31.65c-1-1-1-2.28-1.18-3.46a27.55,27.55,0,0,1-.38-3,2.24,2.24,0,0,0-3.19-1.64,4.69,4.69,0,0,0,.57.08c.08.07.08.15,0,.19a2.91,2.91,0,0,0-1.14,1.67,15.92,15.92,0,0,0-.8,2.51c-.15,1.17-.64,2.28-.83,3.45a20.27,20.27,0,0,0-.38,2.09c-.19,1.52,0,4-.08,5.06a2.25,2.25,0,0,0-.07.68,6.18,6.18,0,0,1,0,1.82c0,.46.45.88.49,1.3a7.62,7.62,0,0,0,.87,3.15,1.73,1.73,0,0,0,1.83,1l1.55-.12a1.26,1.26,0,0,0,.69-.3,9.91,9.91,0,0,0,2.2-1.52,5.57,5.57,0,0,0,1-.72c.45-.46.91-.76,1.37-1.26a2.24,2.24,0,0,1,1-.53c.19.31-.46.88-.16,1.1a1.52,1.52,0,0,1,0,.19c-.27.38-.73.5-.92.8a4.89,4.89,0,0,1-.57,1c-.22.23-.49.42-.76.65-.11.11-.22.3-.38.49a5.77,5.77,0,0,1-1.82,1.63,16.5,16.5,0,0,0-2,1.22,9.85,9.85,0,0,1-2.12.87c-.69.23-1-.11-1.56.16-.11,0-.27-.08-.38-.12s-.38-.15-.53,0a.26.26,0,0,1-.19.12c-.72-.27-1.22-.38-1.9-.65a5.1,5.1,0,0,1-1.64-2,9.93,9.93,0,0,1-1.06-3.42,7,7,0,0,0-.27-2.51c-.15-.38,0-.84-.19-1.25a1.2,1.2,0,0,1-.07-1,4.85,4.85,0,0,0,.11-1.25,39.79,39.79,0,0,1,.31-5.25c.15-.87,0-1.71.22-2.58a18.61,18.61,0,0,1,2.78-6.69.48.48,0,0,1,.15-.11s.11,0,.15.07c.27.27.46.23.61-.07a4.57,4.57,0,0,1,1.33-1.37c.11-.08.19-.23.38-.15a5.08,5.08,0,0,0,2.36-.15A6.84,6.84,0,0,1,126.45,76.42Zm-11.86,9.76a6.44,6.44,0,0,0-.07,1.44c-.16.31.57,1,.41.31s.57-4.22.08-4.22C115,83.71,114.59,86.1,114.59,86.18Z"/><path class="cls-2" d="M138,75.28c.19.3-.27.3-.34.6a5.13,5.13,0,0,1,2.65.12,4.87,4.87,0,0,1,3,2.77,6.71,6.71,0,0,0,.64,1.1,9.1,9.1,0,0,1,1.33,4.3c0,1.33.12,2.66.08,4s0,2.85-.15,4.29a12.3,12.3,0,0,1-.57,2.81c-.34,1.22-.88,2.36-1.14,3.61a6,6,0,0,1-1.33,2.85,3.66,3.66,0,0,1-.8.57,2.66,2.66,0,0,1-1.82.8.88.88,0,0,0-.72.23c-.31.3-.57.19-.84,0s-.46-.3-.34-.68c0-.19-.12-.34-.27-.57a.84.84,0,0,1-.8.34,5.77,5.77,0,0,0-.83,0,1.8,1.8,0,0,1-1.75-.68,3.15,3.15,0,0,1-.53-.69c-.31-.45-.5-1-1.26-1.06.27-.27.38-.42.12-.65A4.53,4.53,0,0,1,130.89,96c-.15-1.83-.26-3.69-.37-5.51a11.22,11.22,0,0,1,0-1.64l.18-3.91a18,18,0,0,1,1.3-5.62,6.79,6.79,0,0,1,1.9-2.63,11.83,11.83,0,0,1,1.36-.79c.38-.27.73-.61,1.22-.46.11,0,.27-.08.42-.15a2.31,2.31,0,0,1,.38-.15C137.58,75,137.89,75,138,75.28Zm-1.45,2.5a4.5,4.5,0,0,0-1.14,1.75,6.32,6.32,0,0,0-.41,2.66,5.48,5.48,0,0,1,.15,1.33c-.08,1.25,0,2.51-.12,3.76a41.67,41.67,0,0,0,0,4.33c.08,1.45.19,2.89.31,4.3a3.81,3.81,0,0,0,.57,2.16c.26.38.64,1.07,1,1.52-.72,0-.95-.87-1.44-1.06.15.26.26.57.38.83a2.73,2.73,0,0,0,.34.54c.11.15.23.41.46.38.45,0,.64.26.83.57s.27.41.53.38a1.71,1.71,0,0,0,1.45-1.33c.07-1,.34-2,.49-2.93a34.88,34.88,0,0,0,.57-4c.08-1.52.15-3,.31-4.56a27.11,27.11,0,0,0,.22-6.11,15,15,0,0,0-.91-3.84,1.53,1.53,0,0,0-1.14-1,4.29,4.29,0,0,0-1.18-.11A1.86,1.86,0,0,0,136.59,77.78Z"/><path class="cls-2" d="M153.81,75.54a8.16,8.16,0,0,0,.91,1.6,3.87,3.87,0,0,1,.61,1.52c.72,2.77,1.44,5.92,2.13,8.7.18.87.38,1.75.68,2.77a12.1,12.1,0,0,0,.49-2.39c.19-1.18.27-2.36.5-3.5s.45-2.58.76-3.83a13.92,13.92,0,0,1,.87-3.31c.27-.49.68-.91,1.22-.8l.91.19a1.16,1.16,0,0,1,.57.27c.45.45.53.42.8-.23,0,0,0,0,.11-.11s.34.34.61.11c.11-.11.34,0,.53,0s.19.15.3.19c1.33.42,1.41,1.48,1.45,2.58,0,.15,0,.31,0,.42a50.12,50.12,0,0,1-.19,5.89c0,1.56,0,3.15.19,4.71.15,1.29.15,2.66.3,4,.19,1.71,0,3.42.12,5.13a19.06,19.06,0,0,1,.15,2.13c-.08.8-.42,1.1-1.25.91-.19.11-.12.3-.16.46a.56.56,0,0,1-.72.3,5,5,0,0,1-2-1,2,2,0,0,1-.91-1.86,22.31,22.31,0,0,1,0-3.27,8.6,8.6,0,0,0-.08-2c-.23-2.39-.19-4.75-.38-7.14s-.15-4.49-.45-6.73l-.12-.3a4.15,4.15,0,0,0-.53,1.33c-.27,1-.65,1.9-.83,2.85a30,30,0,0,0-.84,5.81c0,.42-.12.84-.15,1.29a3.77,3.77,0,0,0-.12,1.94c.23.64-.3,1-.57,1.41-.07.15-.26.07-.38,0a1.49,1.49,0,0,0-.72-.19c-.07.26-.07.49.31.49s.49.57.68.8c-.15.22-.3.19-.53.22-.65.08-1.41,0-1.64-.26s-.38-.34-.79-.57a3.27,3.27,0,0,1-1.33-1.71,74,74,0,0,1-2.47-7.07c-.35-1.29-.69-2.62-1.07-3.91a9.19,9.19,0,0,0-.42-1.29c.16.76-.22,1.48-.07,2.24a23.16,23.16,0,0,1,0,2.77c.07,1.52,0,3.12.15,4.64.11,1.33.19,2.66.38,4a9.21,9.21,0,0,1,.15,2.28,34.38,34.38,0,0,0-.08,3.8.77.77,0,0,1-.07.57c-.31.42-.57.49-1.14.19-.15.07-.12.3-.34.34,0-.08-.16-.11-.16-.23L149,100.5l.08-4.4a29.62,29.62,0,0,0-.19-4,65,65,0,0,1-.23-8.25c0-1.93,0-4.25,0-6.23a2.9,2.9,0,0,0,0-.83c0-.31.15-.46.42-.57a1.73,1.73,0,0,1,1.25,0c.27-.11.27-.38.42-.53.53-.53.61-.61,1.33-.3a1.51,1.51,0,0,1,1.06.87.22.22,0,0,0,.27.12c.08-.35-.08-.73.11-1C153.69,75.35,153.77,75.43,153.81,75.54Zm10.86,10a2.88,2.88,0,0,0-.07-2.47C164.22,83.94,164.64,84.66,164.67,85.53Z"/><path class="cls-2" d="M176,76.53a.29.29,0,0,0,.26,0c1.6-.27,3.23-.23,4.83-.49.42,0,.84-.16,1.25-.16a2.29,2.29,0,0,1,2,1.33,10.45,10.45,0,0,1-2.62.42c-.88,0-1.71-.07-2.59,0s-1.59.27-2.39.31c-.23,0-.34.15-.42.38a8.59,8.59,0,0,0,.12,3.27c0,.38,0,.75,0,1.17a33.94,33.94,0,0,0,0,4.94c1.25-.19,2.47.15,3.68,0,.61-.11,1,.42,1.45.76a1.58,1.58,0,0,1-.84.46,3.69,3.69,0,0,0-1.1.27,9.6,9.6,0,0,1-2.74.38c-.49,0-.49,0-.45.53,0,.91,0,1.82,0,2.77a27.69,27.69,0,0,0-.12,3,3.48,3.48,0,0,1-.11,1.06,7.65,7.65,0,0,0-.19,2.82c.07.38.23.49.57.45a3.21,3.21,0,0,1,.83,0,.26.26,0,0,1,.19.27c-.41.38-1.17,0-1.63.53a.87.87,0,0,0,.76,0c1.33-.34,2.66-.53,4-.91.68-.19,1.4-.07,2.09-.23a.69.69,0,0,1,.53.16c.23.22.46.41.69.6-.23.31-.65.16-.92.35-.07.22.15.34.23.53s.11.49-.23.49a5.3,5.3,0,0,0-1.71.38,6.63,6.63,0,0,1-1.25.19,17.31,17.31,0,0,0-3.46.23c-.3.08-.57.08-.64.53s-.27.34-.54.12-.57-.12-.87-.08a24.37,24.37,0,0,1-4.44.3c-.23,0-.42-.19-.65-.26a.37.37,0,0,1-.23-.38.31.31,0,0,1,.3-.34,10.94,10.94,0,0,0,1.9-.61c0-.88,0-1.75,0-2.66.23-2.81.08-5.47.31-8.28s.26-5.51.34-8.25c0-1.37-.08-2.73-.08-4.06,0-.35-.15-.5-.45-.5-.5,0-.42-.26-.91-.34a.6.6,0,0,1-.53-.38,10.57,10.57,0,0,1,1.82-.42,3.57,3.57,0,0,0,.07-.61c0-.38,0-.68.54-.6,0,0,.11,0,.11,0,.68-.65,1.33-.27,2,0A2.25,2.25,0,0,1,176,76.53Zm-4,25.34c.61-.07.61-.07.53-.49,0-.27,0-.91-.19-1.18C171.93,100.58,172.09,101.42,172,101.87Z"/><path class="cls-2" d="M208.49,76a.36.36,0,0,1-.15.53c-.31.23-.46.61-.76.84s0,.19,0,.34a1.75,1.75,0,0,1-1,.19c-.65,0-1.33-.08-2-.08a6.69,6.69,0,0,0-1.48.08.74.74,0,0,0-.76.57,2.76,2.76,0,0,0-1-.23c.23.5.08,1.1.72,1.41.16.07.16.34.16.53a13.69,13.69,0,0,0,.18,2.47,32.54,32.54,0,0,1,.08,3.42c0,1.71-.08,3.38,0,5.09,0,.68.12,1.33.19,2a24.27,24.27,0,0,1,.11,3.3c0,.42-.07.87,0,1.33,0,1-.15,2-.15,3a17.2,17.2,0,0,1-.58,1.94c0,.08,0,.11,0,.15-.34.15-.72.12-1.07.31-.11.07-.26,0-.41-.08s-.54-.3-.8-.46a.69.69,0,0,0-.65,0c-.53.31-1.29-.26-1.25-.91,0-1-.08-1.94-.12-2.89a9.77,9.77,0,0,1,.19-2.54,5.16,5.16,0,0,0,0-2.28,3.38,3.38,0,0,1-.12-1.26,14.26,14.26,0,0,0-.07-1.86c0-1.37,0-2.73,0-4.1a20.91,20.91,0,0,1,.19-4.41,9.57,9.57,0,0,0,0-1.78,4.24,4.24,0,0,1,.15-1.41c.11-.23,0-.49,0-.76a.54.54,0,0,0-.42-.34,10.11,10.11,0,0,0-2.2,0,21.71,21.71,0,0,1-2.28.07.72.72,0,0,1-.65-.22.61.61,0,0,1,.34-.23c.23-.08.35-.15.27-.46s.11-.34.38-.42a10.17,10.17,0,0,1,2.13-.19c1.37-.07,2.66-.38,3.95-.57a25.9,25.9,0,0,1,4.9-.45,21.67,21.67,0,0,0,3.12,0H208C208.26,75.58,208.37,75.73,208.49,76Zm-9.8,2.28c-.16.23-.16,1.06.11,1.1l.23,0c-.12-.3,0-.95-.23-1.18C198.8,78.16,198.72,78.2,198.69,78.24Z"/><path class="cls-2" d="M215.75,75.28c.19.3-.27.3-.35.6a5.17,5.17,0,0,1,2.66.12,4.87,4.87,0,0,1,3,2.77,6.71,6.71,0,0,0,.64,1.1,9.1,9.1,0,0,1,1.33,4.3c0,1.33.12,2.66.08,4s0,2.85-.15,4.29a12.3,12.3,0,0,1-.57,2.81c-.34,1.22-.88,2.36-1.14,3.61a6,6,0,0,1-1.33,2.85,3.66,3.66,0,0,1-.8.57,2.66,2.66,0,0,1-1.82.8.91.91,0,0,0-.73.23.59.59,0,0,1-.83,0c-.23-.15-.46-.3-.34-.68,0-.19-.12-.34-.27-.57a.84.84,0,0,1-.8.34,5.77,5.77,0,0,0-.83,0,1.8,1.8,0,0,1-1.75-.68,3.15,3.15,0,0,1-.53-.69c-.31-.45-.5-1-1.26-1.06.27-.27.38-.42.12-.65A4.53,4.53,0,0,1,208.6,96c-.15-1.83-.26-3.69-.38-5.51a15,15,0,0,1,0-1.64l.19-3.91a18,18,0,0,1,1.3-5.62,6.87,6.87,0,0,1,1.89-2.63,12,12,0,0,1,1.37-.79c.38-.27.72-.61,1.22-.46.11,0,.26-.08.42-.15a2,2,0,0,1,.38-.15C215.29,75,215.59,75,215.75,75.28Zm-1.45,2.5a4.5,4.5,0,0,0-1.14,1.75,6.49,6.49,0,0,0-.42,2.66,5.5,5.5,0,0,1,.16,1.33c-.08,1.25,0,2.51-.12,3.76a41.67,41.67,0,0,0,0,4.33c.08,1.45.19,2.89.3,4.3a4,4,0,0,0,.57,2.16c.27.38.65,1.07,1,1.52-.72,0-.95-.87-1.44-1.06.15.26.26.57.38.83a2.73,2.73,0,0,0,.34.54c.11.15.23.41.45.38.46,0,.65.26.84.57s.27.41.53.38a1.71,1.71,0,0,0,1.45-1.33c.07-1,.34-2,.49-2.93a37.21,37.21,0,0,0,.57-4c.08-1.52.15-3,.3-4.56a26.54,26.54,0,0,0,.23-6.11,15,15,0,0,0-.91-3.84,1.53,1.53,0,0,0-1.14-1,4.29,4.29,0,0,0-1.18-.11A1.84,1.84,0,0,0,214.3,77.78Z"/><path class="cls-2" d="M246.22,77.14c-.38,1-.61,2.09-1.06,3.08a.84.84,0,0,0-.08.3c0,1.56-.83,2.89-1.25,4.33a24.69,24.69,0,0,1-1.1,3.31,3.67,3.67,0,0,0-.38,2c0,1,.19,1.9.15,2.85,0,2.28,0,4.6,0,6.91v.5a3.61,3.61,0,0,1-.34,2.35c-.5-.3-.5-.3-1,.08s-.42.38-.84.11a3.25,3.25,0,0,1-.49-.38c-.19-.15-.31-.38-.61-.26a.12.12,0,0,1-.11,0c-.19-.08-.19-.49-.53-.34s-.16.42-.31.61a.73.73,0,0,1-.15.11,1.23,1.23,0,0,1-.3-.65,26.89,26.89,0,0,1-.08-6.34,15.16,15.16,0,0,0-.11-3.69,4.79,4.79,0,0,0-.8-2.54,4.37,4.37,0,0,1-.65-1.83c-.61-2.2-1.1-4.48-1.59-6.72a17.53,17.53,0,0,0-1.11-3.61c-.19-.42,0-.76.19-1.14a.2.2,0,0,1,.23-.08,3.9,3.9,0,0,1,3.27,1.83c.3.45.57.91,1,1.44A1.63,1.63,0,0,0,238,78.2c-.12-.23-.12-.23.15-.64a1.28,1.28,0,0,1,.61.91,1.44,1.44,0,0,0,.38.87,3,3,0,0,1,.45,1.22c.31,1.44.76,2.89,1.1,4.33.16.57.46,1.29.8,2.13a85.06,85.06,0,0,1,4.22-11.21A1,1,0,0,1,246.22,77.14Zm-8.58-.08c.07.15.11.5-.16.31a.37.37,0,0,1-.26-.35c0-.11,0-.19.15-.19S237.64,76.91,237.64,77.06Z"/><path class="cls-2" d="M255,75.28c.19.3-.27.3-.34.6a5.17,5.17,0,0,1,2.66.12,4.86,4.86,0,0,1,3,2.77,6.12,6.12,0,0,0,.65,1.1,9.22,9.22,0,0,1,1.33,4.3c0,1.33.11,2.66.07,4s0,2.85-.15,4.29a11.79,11.79,0,0,1-.57,2.81c-.34,1.22-.87,2.36-1.14,3.61a6,6,0,0,1-1.33,2.85,3.66,3.66,0,0,1-.8.57,2.66,2.66,0,0,1-1.82.8.88.88,0,0,0-.72.23c-.31.3-.57.19-.84,0s-.45-.3-.34-.68c0-.19-.11-.34-.27-.57a.83.83,0,0,1-.79.34,5.91,5.91,0,0,0-.84,0,1.8,1.8,0,0,1-1.75-.68,3.15,3.15,0,0,1-.53-.69c-.3-.45-.49-1-1.25-1.06.26-.27.38-.42.11-.65A4.49,4.49,0,0,1,247.86,96c-.15-1.83-.27-3.69-.38-5.51a11.22,11.22,0,0,1,0-1.64l.19-3.91A17.7,17.7,0,0,1,249,79.27a6.9,6.9,0,0,1,1.9-2.63,11.18,11.18,0,0,1,1.37-.79c.38-.27.72-.61,1.21-.46.12,0,.27-.08.42-.15a2.74,2.74,0,0,1,.38-.15C254.54,75,254.85,75,255,75.28Zm-1.44,2.5a4.39,4.39,0,0,0-1.14,1.75,6.18,6.18,0,0,0-.42,2.66,5.48,5.48,0,0,1,.15,1.33c-.08,1.25,0,2.51-.11,3.76a41.68,41.68,0,0,0,0,4.33c.08,1.45.2,2.89.31,4.3a3.81,3.81,0,0,0,.57,2.16,16.41,16.41,0,0,0,1,1.52c-.73,0-1-.87-1.45-1.06a7.64,7.64,0,0,1,.38.83,2.73,2.73,0,0,0,.34.54c.12.15.23.41.46.38.45,0,.64.26.83.57s.27.41.54.38a1.71,1.71,0,0,0,1.44-1.33c.08-1,.34-2,.49-2.93a34.88,34.88,0,0,0,.57-4c.08-1.52.16-3,.31-4.56a27.7,27.7,0,0,0,.23-6.11,14.64,14.64,0,0,0-.92-3.84,1.51,1.51,0,0,0-1.14-1,4.22,4.22,0,0,0-1.17-.11A1.83,1.83,0,0,0,253.56,77.78Z"/><path class="cls-2" d="M270,75.66a8.9,8.9,0,0,1,.35,2.62,14,14,0,0,0,.18,2.81,24.4,24.4,0,0,1,0,3.42c0,1.1-.11,2.2-.15,3.3a23.86,23.86,0,0,1-.3,3.39,11.58,11.58,0,0,0,0,2.28l.11,2.16a5,5,0,0,0,.23,1.33c.31.87.57,1.79.91,2.62a8.64,8.64,0,0,0,.88,1.29c.26.54.64.57,1.1.57a2,2,0,0,0,1.33-.26,3.4,3.4,0,0,0,1.52-3,24.73,24.73,0,0,1,.23-3.46,2.08,2.08,0,0,0,0-.65,33.56,33.56,0,0,1,.27-4.71,10.8,10.8,0,0,0-.11-2.47,22.05,22.05,0,0,1-.12-4.14c0-1-.07-2-.11-3,0-.49-.15-1,.23-1.4.11-.16,0-.54,0-.76s0-.5.35-.54.68,0,.79.42a1.62,1.62,0,0,1,.12.76v1.14c.53-.83-.08-1.78.23-2.7.19,0,.3,0,.3.19a1.1,1.1,0,0,1,0,.5c-.12,1.14.07,2.24,0,3.38a10.17,10.17,0,0,1-.08,1.1,8.88,8.88,0,0,0,0,1.71,26.56,26.56,0,0,1,.31,3.8,42,42,0,0,0-.19,4.48c.07,1.45,0,2.89-.08,4.33a9.56,9.56,0,0,1-.3,1.79,2.11,2.11,0,0,0,0,1.22,3.13,3.13,0,0,1-.8,2.77,1.41,1.41,0,0,1-.88.46,6.84,6.84,0,0,0-1.36.38,2.15,2.15,0,0,1-.84.19c-.11,0-.3-.08-.38.07-.19.42-.57.31-.87.27a2.09,2.09,0,0,0-1.11,0,3.51,3.51,0,0,1-2.39-.54c-.72-.41-1.4-.91-2.13-1.33a3.65,3.65,0,0,1-1.59-2.66c-.08-.49-.15-1-.27-1.52-.07-.34.12-.64.08-1a47.66,47.66,0,0,1,0-5.21c.07-2,0-4-.08-6a37.11,37.11,0,0,1,.27-5.77c.07-.73.23-1.45.26-2.17s.31-1.06,1-1.25a.34.34,0,0,1,.34,0,1,1,0,0,0,.91.15c.27,0,.5.11.57-.31a1.2,1.2,0,0,1,.69-.34C269.75,75.31,269.94,75.39,270,75.66Z"/><path class="cls-2" d="M288.55,76.34a6.28,6.28,0,0,1,3.2.72,6.17,6.17,0,0,0,1.74.91,1.91,1.91,0,0,1,1,1.14,7.69,7.69,0,0,1,.8,3.57c0,.42.19.77.19,1.18a5,5,0,0,1-1.86,3.92A16.56,16.56,0,0,1,291.82,89a1.5,1.5,0,0,1-.64.38c0-.34.41-.42.41-.76a2.79,2.79,0,0,0-1.14.76c-.15.15,0,.38.19.5.54.45,1,1,1.52,1.48a7,7,0,0,1,1.64,2.7c.61,1.59,1.25,3.19,2,4.71a2.89,2.89,0,0,1,.27.83,8.85,8.85,0,0,0,.65,1.71,1.18,1.18,0,0,1,.07.88c0,.34-.11.53-.49.57,0,0-.12.11-.15.19s-.35.26-.54.07c-.38-.34-.72-.53-1.17-.19a.4.4,0,0,1-.42,0,3.86,3.86,0,0,1-1.67-1.37,9.74,9.74,0,0,0-.54-1c-1.21-2.5-2.28-5-3.3-7.63a7.89,7.89,0,0,0-.53-1.1c-.5.26-.84.6-.73,1.21v.31a20.12,20.12,0,0,0,0,4.25,23.58,23.58,0,0,1,0,4c-.08.34.07.8-.57.72-.12,0-.19.11-.19.23a2.4,2.4,0,0,0-.15.57,6,6,0,0,1-1.45-1.1,1.13,1.13,0,0,1-1.52.22,1.74,1.74,0,0,1-.95-1.55c0-.61.15-1.18.12-1.79-.08-1.71-.08-3.46-.16-5.17a8.16,8.16,0,0,0-.11-1,23.24,23.24,0,0,1-.3-5.89c.11-2,.11-4,.19-6a24.44,24.44,0,0,0,.07-2.85,1,1,0,0,0-.07-.57c-.42,0-.8.27-1.22.23-.11-.19.23-.3,0-.45-.31-.31-.12-.46.19-.57a9.39,9.39,0,0,1,4.25-.5C286.43,76.26,287.49,76.26,288.55,76.34ZM286.88,89a1.17,1.17,0,0,0,.34-.19A30.55,30.55,0,0,0,290.8,85a7.75,7.75,0,0,0,1.1-3.26,1.06,1.06,0,0,0-.12-.5,1.71,1.71,0,0,1-.19-1,.5.5,0,0,0-.34-.57,3.15,3.15,0,0,1-.53-.34,6.49,6.49,0,0,0-2.28-1.4,5.78,5.78,0,0,0-1.67-.12A107.3,107.3,0,0,1,286.88,89Z"/><path class="cls-2" d="M320.51,76.42a2.5,2.5,0,0,1,1.18,2.09c.07,1.55.23,6.72-.72,5.47-.53-.69-.19.41-.46.68s-.15.46-.3.65c-1-1-.95-2.28-1.18-3.46a27.55,27.55,0,0,1-.38-3,2.24,2.24,0,0,0-3.19-1.64,4.44,4.44,0,0,0,.57.08c.07.07.07.15,0,.19a2.91,2.91,0,0,0-1.14,1.67,14.09,14.09,0,0,0-.8,2.51c-.15,1.17-.65,2.28-.84,3.45a20.27,20.27,0,0,0-.38,2.09c-.19,1.52,0,4-.07,5.06a2,2,0,0,0-.08.68,5.86,5.86,0,0,1,0,1.82c0,.46.46.88.49,1.3a7.79,7.79,0,0,0,.88,3.15,1.72,1.72,0,0,0,1.82,1l1.56-.12a1.2,1.2,0,0,0,.68-.3,10,10,0,0,0,2.21-1.52,5.65,5.65,0,0,0,1-.72c.46-.46.91-.76,1.37-1.26a2.3,2.3,0,0,1,.95-.53c.19.31-.45.88-.15,1.1a1.18,1.18,0,0,1,0,.19c-.26.38-.72.5-.91.8a6.07,6.07,0,0,1-.57,1c-.23.23-.49.42-.76.65-.11.11-.23.3-.38.49a5.88,5.88,0,0,1-1.82,1.63,15.75,15.75,0,0,0-2,1.22,10.14,10.14,0,0,1-2.13.87c-.68.23-.95-.11-1.56.16-.11,0-.26-.08-.38-.12s-.38-.15-.53,0a.26.26,0,0,1-.19.12c-.72-.27-1.21-.38-1.9-.65a5.07,5.07,0,0,1-1.63-2,9.93,9.93,0,0,1-1.06-3.42,7.18,7.18,0,0,0-.27-2.51c-.15-.38,0-.84-.19-1.25a1.24,1.24,0,0,1-.08-1,4.46,4.46,0,0,0,.12-1.25,39.79,39.79,0,0,1,.3-5.25c.15-.87,0-1.71.23-2.58a18.59,18.59,0,0,1,2.77-6.69.55.55,0,0,1,.16-.11s.11,0,.15.07c.26.27.45.23.6-.07a4.7,4.7,0,0,1,1.33-1.37c.12-.08.19-.23.38-.15a5.08,5.08,0,0,0,2.36-.15A6.83,6.83,0,0,1,320.51,76.42Zm-11.85,9.76a5.91,5.91,0,0,0-.08,1.44c-.15.31.57,1,.42.31s.57-4.22.08-4.22C309,83.71,308.66,86.1,308.66,86.18Z"/><path class="cls-2" d="M330.13,76.53s.19,0,.26,0c1.6-.27,3.23-.23,4.83-.49.42,0,.83-.16,1.25-.16a2.29,2.29,0,0,1,2,1.33,10.45,10.45,0,0,1-2.62.42c-.88,0-1.71-.07-2.59,0s-1.59.27-2.39.31c-.23,0-.34.15-.42.38a8.59,8.59,0,0,0,.11,3.27,11.41,11.41,0,0,1,0,1.17,37,37,0,0,0,0,4.94c1.26-.19,2.47.15,3.69,0,.61-.11.95.42,1.44.76a1.52,1.52,0,0,1-.83.46,3.69,3.69,0,0,0-1.1.27,9.6,9.6,0,0,1-2.74.38c-.49,0-.49,0-.46.53,0,.91,0,1.82,0,2.77a27.71,27.71,0,0,0-.11,3,3.48,3.48,0,0,1-.11,1.06,7.65,7.65,0,0,0-.19,2.82c.07.38.22.49.57.45a3.21,3.21,0,0,1,.83,0,.26.26,0,0,1,.19.27c-.42.38-1.18,0-1.63.53a.87.87,0,0,0,.76,0c1.33-.34,2.66-.53,4-.91.68-.19,1.4-.07,2.09-.23a.69.69,0,0,1,.53.16c.23.22.45.41.68.6-.23.31-.64.16-.91.35-.07.22.15.34.23.53s.11.49-.23.49a5.3,5.3,0,0,0-1.71.38,6.75,6.75,0,0,1-1.25.19,17.31,17.31,0,0,0-3.46.23c-.3.08-.57.08-.65.53s-.26.34-.53.12-.57-.12-.87-.08a24.42,24.42,0,0,1-4.45.3c-.23,0-.41-.19-.64-.26a.37.37,0,0,1-.23-.38.3.3,0,0,1,.3-.34,10.94,10.94,0,0,0,1.9-.61c0-.88,0-1.75,0-2.66.23-2.81.08-5.47.31-8.28s.26-5.51.34-8.25c0-1.37-.08-2.73-.08-4.06,0-.35-.15-.5-.45-.5-.5,0-.42-.26-.92-.34a.62.62,0,0,1-.53-.38,10.89,10.89,0,0,1,1.83-.42,5,5,0,0,0,.07-.61c0-.38,0-.68.54-.6,0,0,.11,0,.11,0,.68-.65,1.33-.27,2,0A2.25,2.25,0,0,1,330.13,76.53Zm-4,25.34c.61-.07.61-.07.53-.49,0-.27,0-.91-.19-1.18C326,100.58,326.17,101.42,326.1,101.87Z"/><path class="cls-2" d="M346.05,76.26c.11.54.57.84.76,1.37.49,1.48.57,3,1.14,4.52.83,2.28,1.44,4.68,2.28,7,.3.87.49,1.78.76,2.66.42,1.48.87,3,1.29,4.44,0,.08.08.19.19.19a18.92,18.92,0,0,0-.19-5.66c-.19.27,0,.53-.08.8a5.77,5.77,0,0,1,0,.83c-.26-.07-.22-.26-.22-.41,0-.95,0-1.94-.12-2.93,0-.57.12-1.18.12-1.79s-.08-1.48-.12-2.2a15.8,15.8,0,0,1-.07-2.28c.07-1.82.11-3.61,0-5.43a1.45,1.45,0,0,1,.37-.8c.08-.11.27-.11.38-.11a1.75,1.75,0,0,1,1.11,1c0,1.14.34,2.28.26,3.46s0,2.36,0,3.57c0,.91.12,1.83,0,2.78-.07,1.67,0,3.34,0,5.05,0,1,.27,2.09.34,3.15.08,1.33.38,2.62.46,4,0,.38.11.88-.11,1-.5.34-.19.68-.19,1,0,.19,0,.34,0,.53a1.08,1.08,0,0,1-.68,1.1.29.29,0,0,1-.42-.15c-.22-.31-.49-.27-.8-.31-.72-.11-1.44.12-2.08-.26-.46.23-.8-.19-1.22-.23s-.68-.34-.8-.76c-.26-1-.57-1.86-.8-2.81-.34-1.48-.87-2.85-1.21-4.33-.42-2-1.1-4-1.71-5.93a40.81,40.81,0,0,1-1.26-4.67c-.15-.95-.41-1.9-.6-2.85-.27.07-.19.23-.19.3-.08,3.15-.16,6.27-.16,9.42,0,2.25.23,4.49.27,6.77,0,1.25.27,2.5.34,3.76a19.62,19.62,0,0,1,0,2.2c-.53-.23-.84-.64-1.37-.76-.19,0-.3-.3-.26-.53a2.12,2.12,0,0,0-.27-1,1.54,1.54,0,0,1-.19-.84c-.15-1.78-.15-3.57-.23-5.39a7.76,7.76,0,0,0-.15-1.56,1.47,1.47,0,0,1,0-.42c.15-2.16-.11-4.37-.08-6.53,0-2.47,0-4.9,0-7.37,0-.5,0-1-.07-1.56,0-.3,0-.46.42-.57a2.42,2.42,0,0,1,1.55,0,.86.86,0,0,0,.61-.11,8,8,0,0,1,2.66-.42C345.9,76.15,346.05,76.19,346.05,76.26Zm6.84,25.27c-.15-.3-.19-.65-.65-.61C352.2,101.61,352.2,101.61,352.89,101.53Z"/><path class="cls-2" d="M371.43,76a.36.36,0,0,1-.15.53c-.31.23-.46.61-.76.84s0,.19,0,.34a1.8,1.8,0,0,1-1,.19c-.65,0-1.33-.08-2-.08a6.69,6.69,0,0,0-1.48.08.74.74,0,0,0-.76.57,2.76,2.76,0,0,0-1-.23c.23.5.08,1.1.72,1.41.16.07.16.34.16.53a12.85,12.85,0,0,0,.19,2.47c.11,1.14.07,2.28.07,3.42,0,1.71-.07,3.38,0,5.09,0,.68.12,1.33.19,2a24.28,24.28,0,0,1,.12,3.3c0,.42-.08.87,0,1.33,0,1-.15,2-.15,3a19.49,19.49,0,0,1-.57,1.94c0,.08,0,.11,0,.15a10.6,10.6,0,0,0-1.06.31c-.12.07-.27,0-.42-.08s-.53-.3-.8-.46a.69.69,0,0,0-.65,0c-.53.31-1.29-.26-1.25-.91,0-1-.08-1.94-.11-2.89a9.35,9.35,0,0,1,.19-2.54,5.16,5.16,0,0,0,0-2.28,3.6,3.6,0,0,1-.12-1.26,14.26,14.26,0,0,0-.07-1.86c0-1.37,0-2.73,0-4.1a20.91,20.91,0,0,1,.19-4.41,9.57,9.57,0,0,0,0-1.78,4.52,4.52,0,0,1,.15-1.41c.11-.23,0-.49,0-.76a.51.51,0,0,0-.42-.34,10.11,10.11,0,0,0-2.2,0,21.71,21.71,0,0,1-2.28.07.72.72,0,0,1-.65-.22.59.59,0,0,1,.35-.23c.22-.08.34-.15.26-.46s.12-.34.38-.42a10.29,10.29,0,0,1,2.13-.19c1.37-.07,2.66-.38,3.95-.57a26,26,0,0,1,4.9-.45,21.67,21.67,0,0,0,3.12,0h.42C371.2,75.58,371.32,75.73,371.43,76Zm-9.8,2.28c-.15.23-.15,1.06.11,1.1l.23,0c-.11-.3,0-.95-.23-1.18C361.74,78.16,361.67,78.2,361.63,78.24Z"/><path class="cls-2" d="M378,76.53a.32.32,0,0,0,.27,0c1.6-.27,3.23-.23,4.82-.49.42,0,.84-.16,1.26-.16a2.27,2.27,0,0,1,2,1.33,10.31,10.31,0,0,1-2.62.42c-.87,0-1.71-.07-2.58,0s-1.6.27-2.39.31c-.23,0-.35.15-.42.38a8.59,8.59,0,0,0,.11,3.27,11.41,11.41,0,0,1,0,1.17,35.41,35.41,0,0,0,0,4.94c1.25-.19,2.47.15,3.69,0,.6-.11,1,.42,1.44.76a1.51,1.51,0,0,1-.84.46,3.69,3.69,0,0,0-1.1.27,9.48,9.48,0,0,1-2.73.38c-.5,0-.5,0-.46.53,0,.91,0,1.82,0,2.77a25.44,25.44,0,0,0-.11,3,3.49,3.49,0,0,1-.12,1.06,7.87,7.87,0,0,0-.19,2.82c.08.38.23.49.57.45a3.32,3.32,0,0,1,.84,0,.26.26,0,0,1,.19.27c-.42.38-1.18,0-1.64.53a.89.89,0,0,0,.77,0c1.32-.34,2.65-.53,4-.91.69-.19,1.41-.07,2.09-.23a.72.72,0,0,1,.54.16c.22.22.45.41.68.6-.23.31-.65.16-.91.35-.08.22.15.34.23.53s.11.49-.23.49a5.3,5.3,0,0,0-1.71.38,6.86,6.86,0,0,1-1.26.19,17.26,17.26,0,0,0-3.45.23c-.31.08-.57.08-.65.53s-.26.34-.53.12-.57-.12-.87-.08a24.48,24.48,0,0,1-4.45.3c-.23,0-.42-.19-.65-.26a.36.36,0,0,1-.22-.38.3.3,0,0,1,.3-.34,10.94,10.94,0,0,0,1.9-.61c0-.88,0-1.75,0-2.66.23-2.81.08-5.47.3-8.28s.27-5.51.35-8.25c0-1.37-.08-2.73-.08-4.06,0-.35-.15-.5-.46-.5-.49,0-.41-.26-.91-.34a.6.6,0,0,1-.53-.38,10.79,10.79,0,0,1,1.82-.42,3.66,3.66,0,0,0,.08-.61c0-.38,0-.68.53-.6,0,0,.12,0,.12,0,.68-.65,1.33-.27,2,0A2.23,2.23,0,0,1,378,76.53Zm-4,25.34c.6-.07.6-.07.53-.49,0-.27,0-.91-.19-1.18C373.94,100.58,374.09,101.42,374,101.87Z"/><path class="cls-2" d="M394.88,76.34a6.26,6.26,0,0,1,3.19.72,6.09,6.09,0,0,0,1.75.91,1.92,1.92,0,0,1,1,1.14,7.69,7.69,0,0,1,.8,3.57c0,.42.19.77.19,1.18A5,5,0,0,1,400,87.78,16.42,16.42,0,0,1,398.15,89a1.54,1.54,0,0,1-.65.38c0-.34.42-.42.42-.76a2.67,2.67,0,0,0-1.14.76c-.15.15,0,.38.19.5.53.45,1,1,1.52,1.48a7,7,0,0,1,1.63,2.7c.61,1.59,1.25,3.19,2,4.71a2.87,2.87,0,0,1,.26.83,8.85,8.85,0,0,0,.65,1.71,1.18,1.18,0,0,1,.07.88c0,.34-.11.53-.49.57,0,0-.11.11-.15.19s-.34.26-.53.07c-.38-.34-.72-.53-1.18-.19a.4.4,0,0,1-.42,0,3.86,3.86,0,0,1-1.67-1.37,8,8,0,0,0-.53-1c-1.22-2.5-2.28-5-3.31-7.63a6.91,6.91,0,0,0-.53-1.1c-.49.26-.84.6-.72,1.21v.31a19.48,19.48,0,0,0,0,4.25,23.58,23.58,0,0,1,0,4c-.08.34.08.8-.57.72-.11,0-.19.11-.19.23a3,3,0,0,0-.15.57,6,6,0,0,1-1.45-1.1,1.13,1.13,0,0,1-1.52.22,1.76,1.76,0,0,1-.95-1.55c0-.61.16-1.18.12-1.79-.08-1.71-.08-3.46-.15-5.17a8.19,8.19,0,0,0-.12-1,23.71,23.71,0,0,1-.3-5.89c.11-2,.11-4,.19-6A24.41,24.41,0,0,0,388.5,78a1,1,0,0,0-.08-.57c-.42,0-.8.27-1.22.23-.11-.19.23-.3,0-.45-.3-.31-.11-.46.19-.57a9.44,9.44,0,0,1,4.26-.5C392.75,76.26,393.81,76.26,394.88,76.34ZM393.21,89a1.64,1.64,0,0,0,.34-.19A31.22,31.22,0,0,0,397.12,85a7.75,7.75,0,0,0,1.1-3.26,1.18,1.18,0,0,0-.11-.5,1.63,1.63,0,0,1-.19-1,.51.51,0,0,0-.34-.57,3.21,3.21,0,0,1-.54-.34,6.49,6.49,0,0,0-2.28-1.4,5.78,5.78,0,0,0-1.67-.12A110.1,110.1,0,0,1,393.21,89Z"/><path class="cls-2" d="M421,75.28c.19.3-.26.3-.34.6a5.17,5.17,0,0,1,2.66.12,4.86,4.86,0,0,1,3,2.77,6.77,6.77,0,0,0,.65,1.1,9.22,9.22,0,0,1,1.33,4.3c0,1.33.11,2.66.08,4s0,2.85-.16,4.29a11.32,11.32,0,0,1-.57,2.81c-.34,1.22-.87,2.36-1.14,3.61a5.89,5.89,0,0,1-1.33,2.85,3.6,3.6,0,0,1-.79.57,2.7,2.7,0,0,1-1.83.8.89.89,0,0,0-.72.23.59.59,0,0,1-.83,0c-.23-.15-.46-.3-.35-.68,0-.19-.11-.34-.26-.57a.85.85,0,0,1-.8.34,5.91,5.91,0,0,0-.84,0,1.77,1.77,0,0,1-1.74-.68,3.52,3.52,0,0,1-.54-.69c-.3-.45-.49-1-1.25-1.06.27-.27.38-.42.11-.65A4.49,4.49,0,0,1,413.84,96c-.15-1.83-.27-3.69-.38-5.51a11.22,11.22,0,0,1,0-1.64l.19-3.91a17.7,17.7,0,0,1,1.29-5.62,7,7,0,0,1,1.9-2.63,11.18,11.18,0,0,1,1.37-.79c.38-.27.72-.61,1.22-.46.11,0,.26-.08.41-.15a2.74,2.74,0,0,1,.38-.15C420.53,75,420.83,75,421,75.28Zm-1.44,2.5a4.5,4.5,0,0,0-1.14,1.75,6.49,6.49,0,0,0-.42,2.66,5,5,0,0,1,.15,1.33c-.07,1.25,0,2.51-.11,3.76a41.67,41.67,0,0,0,0,4.33c.07,1.45.19,2.89.3,4.3a4,4,0,0,0,.57,2.16c.27.38.65,1.07,1,1.52-.72,0-.95-.87-1.45-1.06a6.12,6.12,0,0,1,.38.83,2.78,2.78,0,0,0,.35.54c.11.15.22.41.45.38.46,0,.65.26.84.57s.26.41.53.38a1.7,1.7,0,0,0,1.44-1.33c.08-1,.34-2,.5-2.93a39.86,39.86,0,0,0,.57-4c.07-1.52.15-3,.3-4.56a27.7,27.7,0,0,0,.23-6.11,15,15,0,0,0-.91-3.84,1.53,1.53,0,0,0-1.14-1,4.29,4.29,0,0,0-1.18-.11A1.83,1.83,0,0,0,419.54,77.78Z"/><path class="cls-2" d="M435,76.45a9.81,9.81,0,0,0,1.9-.11c1.1-.11,2.24,0,3.34-.23s2.54-.07,3.8-.23a.43.43,0,0,1,.38.08c.15.15-.08.3-.23.38a1.87,1.87,0,0,0-.83,1.18,1.3,1.3,0,0,1-.92.53,14.69,14.69,0,0,1-2.58.11c-.95,0-1.63.08-2.55.12a9.69,9.69,0,0,0-1.78.26,19,19,0,0,1,.15,2c.15,1.78,0,3.76.27,5.51,0,.42.19.53.72.45.95-.11,1.63,0,2.58-.07s1.45-.15,1.75.19a4,4,0,0,1-1.26.68c-.45.19-.87.31-.6.42s.42.38-.08.53a4.2,4.2,0,0,1-1.37.19,8.24,8.24,0,0,0-1.17.23c-.16,0-.42,0-.42.11a37.4,37.4,0,0,0,.34,5.06c.11.76,0,1.52,0,2.31a20.87,20.87,0,0,0,.3,3.08,2,2,0,0,1,0,1.07,4.92,4.92,0,0,0-.08,1.06,13.82,13.82,0,0,1-.15,1.82c0,.5-.42.31-.68.46-.23.42-.42.27-.61-.19.15-.23,0-2.32-.27-2.32s0,1.14-.19,1.64-1.59.22-2.05,0-.64-.34-.64-1.4,0-2.32,0-3.5-.08-2.54-.12-3.83c-.07-1.49.19-3.42.12-4.91,0-.64-.69-.49-.84-.64s-.11-.69-.38-.88,0-.38.27-.53a5,5,0,0,0,.83-.26c0-1.75,0-3.16,0-4.9s-.26-3.46-.3-5.25c0-.34.08-.57.38-.68s.49-.19.61.19.15.15.42.26c-.12-.79.34-.68.79-.91C434.17,75.85,434.93,76,435,76.45Zm5.16,11c-.19.08-.49.19-.42.42s.39,0,.58,0,.19-.11.34-.38A1.1,1.1,0,0,0,440.17,87.47Z"/></g><path class="cls-3" d="M457.06,69.71c-.48.52-.95,1.05-1.4,1.62-.28.36-.54.74-.8,1.11l-.19.3h0l.09-.15c-1.66,2.89-4.22,4.08-6.83,2.3-2.21-1.5-3.34-6.08-1.79-8.79.41-.72.85-1.39,1.29-2H61c1.53,2.39,1,6.27-.52,8.4A4.6,4.6,0,0,1,57,74.34a4.88,4.88,0,0,1-3.53-1.89,32.74,32.74,0,0,1-2.64-3.18,15.34,15.34,0,0,0-2,7.63V95a4.2,4.2,0,0,1,4.35.36c2.35,1.6,3.14,5.91,1.79,8.79-1.07,2.27-2.27,4.43-3.34,6.7a5.39,5.39,0,0,1-2.8,2.81v.38h410v-1.23c-2.18-2.87-4.54-5.48-6.3-8.9-1.5-2.9-.44-7.12,1.79-8.79a3.86,3.86,0,0,1,4.51-.24v-18a15.58,15.58,0,0,0-1.73-7.24Z"/><path class="cls-2" d="M273.1,55.63c-1.32-.29-3.92.13-6.75.87,2.72-3.48,5.34-8.7,4.92-9.43-.62-1.09-5.66.71-8.37,1.67a8.89,8.89,0,0,0-2.31,1.5V21.84h13v-10h-13V0h-10V11.84h-13v10h13V50.32a9.67,9.67,0,0,0-2.73-1.85c-2.71-1-7.75-2.77-8.37-1.68-.43.75,2.39,6.33,5.22,9.8-2.78-.83-5.33-1.33-6.65-1.09C235.23,56,230,57,230,58.24s9,6.65,12.81,6.7c5.18.07,9.83-.7,12.07-1.67.31-.09.63-.2,1-.31a18.92,18.92,0,0,0,2.12.54,40.64,40.64,0,0,0,10.13,1.4c3.83.07,13-5.12,13-6.25S275.9,56.24,273.1,55.63Z"/><path class="cls-2" d="M494.57,130.72c-.5,1.64-14.65,6.59-18.42,5.77-2.8-.62-8-1.77-8-3s9.2-6.33,13-6.25C488.68,127.37,495,129.25,494.57,130.72Z"/><path class="cls-2" d="M498.91,128.72c.45,1.66-8.93,13.35-12.56,14.65-2.71,1-7.75,2.77-8.37,1.67s4.45-10.24,7.74-12.21C492.14,129,498.5,127.24,498.91,128.72Z"/><path class="cls-2" d="M28.94,129.85c-.49,1.65-14.65,6.6-18.41,5.77-2.81-.61-8-1.76-8-3s9.21-6.33,13-6.25C23.06,126.51,29.38,128.39,28.94,129.85Z"/><path class="cls-2" d="M33.28,127.86c.46,1.66-8.93,13.35-12.56,14.65-2.7,1-7.75,2.77-8.37,1.67S16.81,133.94,20.1,132C26.52,128.14,32.88,126.38,33.28,127.86Z"/><g class="cls-4"><path class="cls-2" d="M2.51,150.81c-1.57.82-2.09-1.65-2.51-2.88C1.57,148.06,1.78,149.71,2.51,150.81ZM28.3,67.59c2.3.82,4,2.46,4.7,5.76l1.88,7.81c.63,2.19,0,4.25-.21,6.31-.1,1-1.14,1-1.56,1.92-.42,1.37-1.15,2.6-1.67,4-.63-.27-.53-1.23-.94-1.64-.74.27-.32,1.5-.94,1.91-.11.14-.21.14-.32-.13a14.7,14.7,0,0,1-2.09-9.73,14.48,14.48,0,0,0-.31-5.63c-.52-2.6-3.24-5.75-5.12-4.79A34.88,34.88,0,0,0,18.59,75c-1.15.69-1.77,2.19-2.3,3.56s-.94,3.84-1.56,5.08c-1.05,1.51-1.05,5.48.21,6.72,3.13,3.42,5.22,8,7.62,11.92a51.23,51.23,0,0,0,6.47,8.5,44.73,44.73,0,0,1,5.12,7.82,19.59,19.59,0,0,0,2,3.29c2.5,3.15,2.4,7.54,3.34,11.65.62,2.88.41,5.9.52,8.91,0,1.37-.11,2.88-1.25,3.7-.63.41-.53,1.1-.63,1.79A33.93,33.93,0,0,1,35,157.8c-.63,1.23-1.46,2.33-2.61,2.46a2.21,2.21,0,0,0-1.15,1,11.88,11.88,0,0,1-4.08,3.84c-.41.28-.83.69-1.25.41-1.25-.68-2.3,0-3.34.69-3.13,2.33-8.36.55-12.85-3-.42-.41-6.58-8.09-6.78-8.5-2.2-4,3.34,3.29,1.25-1a9.16,9.16,0,0,1-.84-3.83c0-1.65-1-2.47-1.56-3.71-.21-.55-.73-.82-.84-1.64.42-.41,1.46-1.1,2.09-.28.83,1.24,1,.55,1.67,1s.73.83,1.57,1.65c1.14,1.23,1.35,2.47,2.08,3.56,1.05,1.92,2.2,2.33,3.77,3.29,3.65,1.92,7.31,6,10.54,1.65,2-2.74,2.4-5.62,2.4-9.05a62.33,62.33,0,0,0-1.25-10.14,5.49,5.49,0,0,0-.73-2.06c-4-7.27-7.2-13.44-12.22-19.19-2.61-2.75-5.74-7.54-6.68-11.79-.42-2.2-1.46-4.12-1.67-6.31a10.11,10.11,0,0,1,.1-3.57c.84-3.83,1.25-8,2.4-11.65A25.68,25.68,0,0,1,13,69.23a3.79,3.79,0,0,1,3.55-1c1.88.41,3.66-.54,5.54-.82A16.1,16.1,0,0,1,28.3,67.59ZM17.13,116.67c.31-.14-.84-3-1.57-4.11-1-1.92-2.19-2.47-2.4-3.43-1.46-1.24-2.61-3-4.28-3.57C10.76,109.68,14.52,113.93,17.13,116.67Z"/><path class="cls-2" d="M49.2,124.07a.41.41,0,0,0,.36.24,15.4,15.4,0,0,1,2.88.06,31.74,31.74,0,0,1,5.34,0c2,.18,4.08.3,5.82,1.56a13,13,0,0,1,2.46,2.34,12.11,12.11,0,0,1,1.14,2.58c.06.18,0,.42.06.6a36.9,36.9,0,0,1,.3,3.9,10,10,0,0,1-.3,4.2l-.42.78c-1,1.68-1.38,2.88-2.4,3.42a25.17,25.17,0,0,0-2.94,2,2,2,0,0,1-.6.36,45.16,45.16,0,0,0-5.22,3l-.78.42c-1.2.6-1.26,1.2-1.26,1.44l-.06,1.2c.36,2.22-.18,4.44.06,6.6a23.32,23.32,0,0,1-.24,2.94,19.54,19.54,0,0,0,.36,4.2,1.16,1.16,0,0,1,0,.78c-.06.42-.3.66-.72.48-1-.36-2.94.42-3.72-1.5-.18-.54-.06-2.1-.3-2.28s-.42,2.76-.66,2.76a1.47,1.47,0,0,1-1.68-1.5,9.66,9.66,0,0,1,0-2.28,52.84,52.84,0,0,0,0-5.34v-3.18c0-.48-.18-.72-.78-.6s-.78-.12-.6-.66c.18-.36.42-.84.72-.84.78-.12.6-.6.6-1.08-.12-2.94-.36-5.82-.42-8.76s-.06-5.7,0-8.58c0-1.62.24-3.18.36-4.8a13.73,13.73,0,0,0-.06-2.22c-.06-.36,0-.6-.06-.84s-1.08-.36-1.14-.6c.12-.42,1-.36,1.14-.9a.89.89,0,0,1,1-.48C47.94,123.77,48.72,123.47,49.2,124.07Zm3.18,2a10.54,10.54,0,0,1,.36,2.4c-.06.78,0,1.62,0,2.46a53.88,53.88,0,0,0,.18,7.62,48.56,48.56,0,0,0,.36,5.1,20.51,20.51,0,0,1,.24,2.7,1.88,1.88,0,0,0,.24,1.08,3.92,3.92,0,0,0,.48-.42c.72-1,2-1.32,2.88-2.28.48-.48,1.2-.84,1.5-1.44a21.46,21.46,0,0,0,1.92-5.4.66.66,0,0,1,.6-.66,9.72,9.72,0,0,1-.78,3.3c-.06.24,0,.24,0,.36.6,0,2.1-4,1.56-5.76,0-.06-.06-.12-.18-.12s-.18.42-.42.66c-.36-.36-.24-.72-.18-1.08a8.14,8.14,0,0,0,.24-1.62,5.68,5.68,0,0,0-.12-1.74,3.06,3.06,0,0,0-.36-1.2,12.85,12.85,0,0,0-1.8-3,2.79,2.79,0,0,0-1.44-1c-1.68-.48-3.42-.06-5.1-.18Q52.47,125.93,52.38,126.11Z"/><path class="cls-2" d="M81.9,125.81a6.48,6.48,0,0,1,1.62,4c.12,2.64.12,5.88.36,8.7.18,2,.18,4.08.42,6.12a13.19,13.19,0,0,0,.36,2.22,13.26,13.26,0,0,1,0,5.1c-.36,2.4-.3,4.8-.42,7.14a7.22,7.22,0,0,1-.48,3.18,1.65,1.65,0,0,0,.06,1.2c.06.36.3.72-.18,1-.18.12-.06.36.06.48.3.36.12.66-.06,1-.48.78-.48.78-1.2.3-.48-.3-1-.36-1.26,0-1.32,2-1.8.18-3.3.36a.76.76,0,0,1-.78-.6,6.23,6.23,0,0,1-.42-2.1c0-1.62.07-3.24.07-4.8,0-1.74-.37-3.36-.49-5C75.9,150,76.14,146,75.9,142c-.12-2.1.06-4.26,0-6.3-.12-2.46.06-5.58.12-8,.06-.9.06-.9,1-.9a1.17,1.17,0,0,1,.42-.06c.18-.42-.12-.78,0-1.2s.6-.12.84-.42c.12-.12.37-.24.48-.18C79.86,125,81.06,124.91,81.9,125.81Zm.48,19.32v1.38c0,.24.36,1,.42,1.32l.12,1.32c.06-.24.06-.06.24-.72a5.5,5.5,0,0,0,.06-1.68c0-.36-.18-1.2-.24-1.62l-.3-2.52A12.57,12.57,0,0,0,82.38,145.13Z"/><path class="cls-2" d="M104.52,124.9c1.74.12,3.54.12,5,1.14a10.11,10.11,0,0,0,2.76,1.44,3,3,0,0,1,1.62,1.8,12.14,12.14,0,0,1,1.26,5.64c-.06.66.3,1.2.3,1.86a7.94,7.94,0,0,1-2.94,6.18,24,24,0,0,1-2.88,1.92,2.43,2.43,0,0,1-1,.6c.06-.54.66-.66.66-1.2a4.15,4.15,0,0,0-1.8,1.2c-.24.24.06.6.3.78.84.72,1.62,1.56,2.4,2.34a11.15,11.15,0,0,1,2.58,4.26c1,2.52,2,5,3.12,7.44a4.85,4.85,0,0,1,.42,1.32,14.68,14.68,0,0,0,1,2.7,1.85,1.85,0,0,1,.12,1.38c-.06.54-.18.84-.78.9-.06,0-.18.18-.24.3-.24.36-.54.42-.84.12-.6-.54-1.14-.84-1.86-.3a.65.65,0,0,1-.66,0c-1-.6-2.1-1.08-2.64-2.16a12.08,12.08,0,0,0-.84-1.5c-1.92-4-3.6-8-5.22-12.06a11.53,11.53,0,0,0-.84-1.74c-.78.42-1.32,1-1.14,1.92v.48c-.48,2.22,0,4.44,0,6.72a37.53,37.53,0,0,1-.06,6.36c-.12.54.12,1.26-.9,1.14-.18-.06-.3.18-.3.36a5,5,0,0,0-.24.9,8.86,8.86,0,0,1-2.28-1.74,1.79,1.79,0,0,1-2.4.36,2.76,2.76,0,0,1-1.5-2.46c-.06-1,.24-1.86.18-2.82-.12-2.7-.12-5.46-.24-8.16a13.8,13.8,0,0,0-.18-1.56,37.11,37.11,0,0,1-.48-9.3c.18-3.18.18-6.3.3-9.48a37.24,37.24,0,0,0,.12-4.5,1.57,1.57,0,0,0-.12-.9c-.66,0-1.26.42-1.92.36-.18-.3.36-.48.06-.72-.48-.48-.18-.72.3-.9a15,15,0,0,1,6.72-.78C101.16,124.78,102.84,124.78,104.52,124.9Zm-2.64,20a2.66,2.66,0,0,0,.54-.3,49.42,49.42,0,0,0,5.64-6.12,12.27,12.27,0,0,0,1.74-5.16,1.66,1.66,0,0,0-.18-.78,2.61,2.61,0,0,1-.3-1.5.79.79,0,0,0-.54-.9,6.59,6.59,0,0,1-.84-.54,10.42,10.42,0,0,0-3.6-2.22,9.63,9.63,0,0,0-2.64-.18A173.83,173.83,0,0,1,101.88,144.94Z"/><path class="cls-2" d="M131.22,125.81a6.48,6.48,0,0,1,1.62,4c.12,2.64.12,5.88.36,8.7.18,2,.18,4.08.42,6.12a13.19,13.19,0,0,0,.36,2.22,13.26,13.26,0,0,1,0,5.1c-.36,2.4-.3,4.8-.42,7.14a7.22,7.22,0,0,1-.48,3.18,1.65,1.65,0,0,0,.06,1.2c.06.36.3.72-.18,1-.18.12-.06.36.06.48.3.36.12.66-.06,1-.48.78-.48.78-1.2.3-.48-.3-1-.36-1.26,0-1.32,2-1.8.18-3.3.36a.76.76,0,0,1-.78-.6,6.23,6.23,0,0,1-.42-2.1c0-1.62.06-3.24.06-4.8,0-1.74-.36-3.36-.48-5-.36-4.08-.12-8.1-.36-12.12-.12-2.1.06-4.26,0-6.3-.12-2.46.06-5.58.12-8,.06-.9.06-.9,1-.9a1.17,1.17,0,0,1,.42-.06c.18-.42-.12-.78,0-1.2s.6-.12.84-.42c.12-.12.36-.24.48-.18C129.18,125,130.38,124.91,131.22,125.81Zm.48,19.32v1.38c0,.24.36,1,.42,1.32l.12,1.32c.06-.24.06-.06.24-.72a5.5,5.5,0,0,0,.06-1.68c0-.36-.18-1.2-.24-1.62l-.3-2.52A12.57,12.57,0,0,0,131.7,145.13Z"/><path class="cls-2" d="M164.52,124.26a.58.58,0,0,1-.24.84c-.48.36-.72,1-1.2,1.32s.06.3.06.54a2.81,2.81,0,0,1-1.56.3c-1-.06-2.1-.12-3.12-.12a10.21,10.21,0,0,0-2.34.12,1.18,1.18,0,0,0-1.2.9,4.56,4.56,0,0,0-1.56-.36c.36.78.12,1.74,1.14,2.22.24.12.24.54.24.84a21.36,21.36,0,0,0,.3,3.9c.18,1.8.12,3.6.12,5.4.06,2.7-.12,5.34,0,8,.06,1.08.18,2.1.3,3.12a38,38,0,0,1,.18,5.22c0,.66-.12,1.38-.06,2.1.06,1.56-.24,3.12-.24,4.74-.06,1.08-.72,2-.9,3.06,0,.12,0,.18-.06.24-.54.24-1.14.18-1.68.48-.18.12-.42,0-.66-.12s-.84-.48-1.26-.72a1,1,0,0,0-1,.06c-.84.48-2-.42-2-1.44.06-1.5-.12-3.06-.18-4.56a15,15,0,0,1,.3-4,8.1,8.1,0,0,0-.06-3.6,5.56,5.56,0,0,1-.18-2,23.61,23.61,0,0,0-.12-2.94c0-2.16-.06-4.32-.06-6.48a33.64,33.64,0,0,1,.3-7,14.66,14.66,0,0,0,.06-2.82,7,7,0,0,1,.24-2.22c.18-.36,0-.78-.06-1.2a.84.84,0,0,0-.66-.54,16.86,16.86,0,0,0-3.48,0c-1.2.18-2.4.06-3.6.12a1.15,1.15,0,0,1-1-.36,1,1,0,0,1,.54-.36c.36-.12.54-.24.42-.72s.18-.54.6-.66a15.91,15.91,0,0,1,3.36-.3c2.16-.12,4.2-.6,6.24-.9,2.58-.3,5.1-.9,7.74-.72a33.67,33.67,0,0,0,4.92-.06h.66C164.16,123.66,164.34,123.9,164.52,124.26ZM149,127.86c-.24.36-.24,1.68.18,1.74l.36.06c-.18-.48.06-1.5-.36-1.86C149.22,127.74,149.1,127.8,149,127.86Z"/><path class="cls-2" d="M178,123.46a13.78,13.78,0,0,1,.54,4.14,22.11,22.11,0,0,0,.3,4.44,40.54,40.54,0,0,1,0,5.4c-.06,1.74-.18,3.48-.24,5.22a39.25,39.25,0,0,1-.48,5.34,18,18,0,0,0,0,3.6l.18,3.42a7.68,7.68,0,0,0,.36,2.1c.48,1.38.9,2.82,1.44,4.14a15.23,15.23,0,0,0,1.38,2,1.61,1.61,0,0,0,1.74.9,3.19,3.19,0,0,0,2.1-.42,5.36,5.36,0,0,0,2.4-4.74,41,41,0,0,1,.36-5.46,3,3,0,0,0,.06-1,51.09,51.09,0,0,1,.42-7.44,17,17,0,0,0-.18-3.9,34.06,34.06,0,0,1-.18-6.54c.06-1.62-.12-3.18-.18-4.8,0-.78-.24-1.5.36-2.22.18-.24.06-.84.06-1.2s0-.78.54-.84c.78-.06,1.08.06,1.26.66a2.66,2.66,0,0,1,.18,1.2v1.8c.84-1.32-.12-2.82.36-4.26.3-.06.48.06.48.3a1.79,1.79,0,0,1,.06.78c-.18,1.8.12,3.54,0,5.34a17,17,0,0,1-.12,1.74,13.53,13.53,0,0,0,0,2.7,39.8,39.8,0,0,1,.48,6,69.85,69.85,0,0,0-.3,7.08c.12,2.28-.06,4.56-.12,6.84a14.58,14.58,0,0,1-.48,2.82,3.48,3.48,0,0,0,0,1.92,4.9,4.9,0,0,1-1.26,4.38,2.22,2.22,0,0,1-1.38.72,12.75,12.75,0,0,0-2.16.6,3.27,3.27,0,0,1-1.32.3c-.18-.06-.48-.12-.6.12-.3.66-.9.48-1.38.42a3.43,3.43,0,0,0-1.74.06,5.54,5.54,0,0,1-3.78-.84c-1.14-.66-2.22-1.44-3.36-2.1-1.56-.9-2.16-2.46-2.52-4.2-.12-.78-.24-1.62-.42-2.4-.12-.54.18-1,.12-1.56a75.13,75.13,0,0,1,0-8.22c.12-3.18.06-6.36-.12-9.54a58,58,0,0,1,.42-9.12c.12-1.14.36-2.28.42-3.42.06-1.32.48-1.68,1.62-2a.6.6,0,0,1,.54,0,1.56,1.56,0,0,0,1.44.24c.42,0,.78.18.9-.48a1.81,1.81,0,0,1,1.08-.54A.55.55,0,0,1,178,123.46Z"/><path class="cls-2" d="M209.28,122.93c.36-.12.9,1.5,1,2,0-1.5.24-2.58,1.08-.3a31.18,31.18,0,0,1,1.26,3.3c.3,1.32.84,2.58,1,3.9.12,1,.24.72.72,1.62.84,1.5.78,3.24,1.2,4.86a71.4,71.4,0,0,0,2.7,7.86,33.79,33.79,0,0,1,1.5,6.12c.12.54,0,1.14.12,1.74a53.32,53.32,0,0,0,2.22,6.6,9.05,9.05,0,0,1,.9,4.26c-.06.72-.12,1.5-1.14,1.62a.53.53,0,0,1-.54.66c-.3-.3-.72-.36-1-1-.12-.24-.54-.12-.6-.42-.24-.66-1.08-.84-1.2-.3-.24,1.08-1.38.42-2.1.6a.6.6,0,0,1-.9-.48c-.66-2-1.32-3.9-1.8-5.82-.42-1.62-1.26-3.12-1.56-4.8a1,1,0,0,0-1.08-.78c-2.34.12-4.14-.06-6.54.24-.54.06-1.56-.18-1.92.24s-.3,1-.48,1.56a32.46,32.46,0,0,0-.72,3.3l-.48,4.14a13,13,0,0,1-.24,1.5c-.12.72-.42.9-1.32.66-.24-.06-.66-1.38-.9-.42-.12.54-.6-1-.54-1.56a49,49,0,0,1,1.44-7.86l.18-.9c.12-.84.12-.78-.66-1-.42-.12-.9-.18-1.14-.66.24-.54.78-.42,1.2-.48,1.38-.36,1.2-.06,1.38-1.44.3-2,1.08-4.62,1.32-6.66a64.92,64.92,0,0,1,1.56-8.28,41,41,0,0,0,1-5.28c.3-1.8.6-3.6.84-5.34a2.47,2.47,0,0,0-.06-1.32c-.12-.42-.18-1,.42-1.26s1.2-1,1.92-.54A3,3,0,0,0,209.28,122.93Zm-3,10.08a11.18,11.18,0,0,1-.54,3.72c-.42,1.5-.24,3.12-.78,4.62a23.39,23.39,0,0,0-1,4.62c-.24,2-.6,4.08-1,6.12,2-.12,4.14-.18,6.06-.3a3.5,3.5,0,0,0,1.08-.24c.9-.18,1-.3.66-1.14-.54-1.38-.72-2.88-1.14-4.32-.36-1.2-.42-2.52-.84-3.78a21,21,0,0,1-1-4.68,21.56,21.56,0,0,0-1.2-5.28C206.34,132.59,206.22,132.83,206.28,133Zm9.42,9.54a5.89,5.89,0,0,0-.72-2.76C214.5,140.27,215.58,142.19,215.7,142.55Z"/><path class="cls-2" d="M235,123.5c.24.06.18.42.18.6a15.29,15.29,0,0,1-.12,2.34,57.66,57.66,0,0,0,0,7.2,12.49,12.49,0,0,0,.06,3c.06.42,0,.84.42,1.14.78-2.28-.18-4.56.18-6.9s-.06-4.56.3-7a2,2,0,0,1,.6,2.1c0,1.56.06,3.12.06,4.68-.06,2.76.06,5.46.06,8.22a44.87,44.87,0,0,0,.42,8,52.08,52.08,0,0,1,1,6.12,33,33,0,0,1-.42,5.46,8.13,8.13,0,0,0-.12,1.2,4.33,4.33,0,0,1-.48,1.92,2,2,0,0,0-.06,1.92.25.25,0,0,0,.36-.18c.3-.54.3-.6.78-.12a.66.66,0,0,0,.54.18,11.46,11.46,0,0,0,2.46-.12c1.14-.18,2.28-.24,3.48-.36a3.11,3.11,0,0,1,1.8.3,1.93,1.93,0,0,0,1,.12,1.57,1.57,0,0,1,.9.12c.3.18.6.42.18.72s-.42.48-.18.84a.29.29,0,0,1-.12.48,4.63,4.63,0,0,1-2.52.78c-1.44-.12-2.88.36-4.38.24a45,45,0,0,0-4.92.24c-1.56.18-3.6.12-5.16.42-1.08.18-1.86-.36-2.4-1.56.6-.48,1.68.06,2-1-.06-.3-.36-.42-.54-.66a3.8,3.8,0,0,1-.9-1.92c-.18-3.6,0-7.2-.24-10.74-.18-3-.12-6-.24-9-.06-3.18-.24-6.3-.3-9.48-.06-2.52.12-5.1-.12-7.62-.06-.6.3-.78.72-.78,1,.12,1.62-.66,2.52-.72.18,0,.3-.18.42-.36.3-.78.9-.9,1.62-1C234.18,122.78,234.3,123.38,235,123.5Zm-3.24,40.8c-.06.12,0,.18.12.18s.3-.06.36-.3,0-.3-.24-.3S231.78,164.12,231.72,164.3Z"/><path class="cls-2" d="M301,124.61a3.81,3.81,0,0,1,.06,2.58c-.42,2.4-.9,4.86-1.2,7.26-.48,3.6-1,7.2-1.62,10.8-.3,1.62-.3,3.3-.54,5a16.56,16.56,0,0,1-.36,2.4,55.44,55.44,0,0,0-.36,6.3c-.12,1.2-.06,2.4-.06,3.6a1.85,1.85,0,0,1-.24,1.26,1.18,1.18,0,0,0-.06.9,1.71,1.71,0,0,1-.12,1.2,7.4,7.4,0,0,1-2.82-.18,2.71,2.71,0,0,1-2-1.74,79.4,79.4,0,0,1-2.88-9.78c-.48-2.46-1.14-4.92-1.68-7.38-.3-1.26-.54-2.52-.84-3.78a29.7,29.7,0,0,0-.66,6.48c0,1.26-.42,2.46-.36,3.72a39.8,39.8,0,0,1-.48,6c-.24,1.86-.3,3.78-.72,5.58a14.93,14.93,0,0,1-1.2,2.4,14,14,0,0,0-2-.84c-.3-.06-.66-.36-.9.24a.31.31,0,0,1-.48,0l-.54-.6c-.42.12-.12.72-.66.72-.54-.72-1.44-1.38-1.44-2.46a.71.71,0,0,0-.66-.66c-1-.18-1.26-.84-1.38-1.68-.36-3-.72-6-1-8.94-.42-3.3-.78-6.6-1-9.9a25.69,25.69,0,0,0-.6-3.54c-.54-2.34-.78-4.68-1.14-7.08-.12-.6-.3-1.14-.48-1.74a19.15,19.15,0,0,1-.6-4.14c.24-.3.6-.06.84-.24s.12-.3.06-.42c-.24-1.2.18-1.62,1.38-1.38a2.81,2.81,0,0,1,1.32.54c.24.18.42.66.84.42s1.32.06,1.62-.78c.06.06.18.06.18.12a14,14,0,0,1,2,5.82c.24,3.06.66,6.06,1,9.06.18,1.32.12,2.64.3,3.9l.9,6.24c.24,1.56.48,3.18.78,4.74a10.82,10.82,0,0,0,.3,1.14c1-2.22,1-2.22,1-3.84a5.68,5.68,0,0,1,.3-2c.24-.54.66-1.14.3-1.8a.53.53,0,0,1,.06-.42c.66-3.12.9-6.24,1.44-9.36.36-2,.54-4.08,1-6.06a13,13,0,0,0,.12-2.16c0-.66,1-1.2,1.38-.72s1.14.3,1.68.3c.84.06.84,0,1,.78.18,1.26.54,2.46.78,3.72.42,2,.66,4.08,1.14,6.06.78,3.06,1.32,6.12,2,9.12.24,1.26.54,2.46.9,3.72.24-.06.24-.3.24-.42.12-1.38.6-2.7.6-4.14a38.64,38.64,0,0,1,.6-5.22c.12-1,.12-2,.18-3a9.79,9.79,0,0,1,.72-3.18,30.16,30.16,0,0,0,1-4c.42-2.28.78-4.62,1.44-6.9a7.33,7.33,0,0,0,.18-1.56.77.77,0,0,1,.78-.84C300.66,123.83,300.84,124.13,301,124.61Z"/><path class="cls-2" d="M316.14,124.54a.51.51,0,0,0,.42,0c2.52-.42,5.1-.36,7.62-.78.66-.06,1.32-.24,2-.24a3.56,3.56,0,0,1,3.12,2.1,16.54,16.54,0,0,1-4.14.66c-1.38-.06-2.7-.12-4.08-.06s-2.52.42-3.78.48c-.36,0-.54.24-.66.6a13.6,13.6,0,0,0,.18,5.16c.06.6,0,1.2,0,1.86a56.4,56.4,0,0,0,0,7.8c2-.3,3.9.24,5.82-.06,1-.18,1.5.66,2.28,1.2a2.43,2.43,0,0,1-1.32.72,6.13,6.13,0,0,0-1.74.42,14.74,14.74,0,0,1-4.32.6c-.78.06-.78.06-.72.84.06,1.44.06,2.88,0,4.38a42.26,42.26,0,0,0-.18,4.8,5.35,5.35,0,0,1-.18,1.68,12.26,12.26,0,0,0-.3,4.44c.12.6.36.78.9.72a4.77,4.77,0,0,1,1.32-.06.41.41,0,0,1,.3.42c-.66.6-1.86-.06-2.58.84a1.38,1.38,0,0,0,1.2-.06c2.1-.54,4.2-.84,6.3-1.44,1.08-.3,2.22-.12,3.3-.36a1.08,1.08,0,0,1,.84.24c.36.36.72.66,1.08,1-.36.48-1,.24-1.44.54-.12.36.24.54.36.84.3.42.18.78-.36.78a8.39,8.39,0,0,0-2.7.6,11.29,11.29,0,0,1-2,.3,27.55,27.55,0,0,0-5.46.36c-.48.12-.9.12-1,.84-.06.48-.42.54-.84.18s-.9-.18-1.38-.12a39.08,39.08,0,0,1-7,.48c-.36,0-.66-.3-1-.42a.57.57,0,0,1-.36-.6c0-.36.18-.48.48-.54a17.23,17.23,0,0,0,3-1c0-1.38-.06-2.76,0-4.2.36-4.44.12-8.64.48-13.08s.42-8.7.54-13c.06-2.16-.12-4.32-.12-6.42,0-.54-.24-.78-.72-.78-.78,0-.66-.42-1.44-.54a1,1,0,0,1-.84-.6,18,18,0,0,1,2.88-.66,6,6,0,0,0,.12-1c0-.6.06-1.08.84-1,.06,0,.18,0,.18-.06,1.08-1,2.1-.42,3.18-.06A3.57,3.57,0,0,1,316.14,124.54Zm-6.36,40c1-.12,1-.12.84-.78-.06-.42.06-1.44-.3-1.86C309.66,162.52,309.9,163.84,309.78,164.56Z"/><path class="cls-2" d="M341.7,123.5c.24.06.18.42.18.6a15.29,15.29,0,0,1-.12,2.34,57.66,57.66,0,0,0,0,7.2,12.49,12.49,0,0,0,.06,3c.06.42,0,.84.42,1.14.78-2.28-.18-4.56.18-6.9s-.06-4.56.3-7a2,2,0,0,1,.6,2.1c0,1.56.06,3.12.06,4.68-.06,2.76.06,5.46.06,8.22a44.87,44.87,0,0,0,.42,8,52.08,52.08,0,0,1,1,6.12,33,33,0,0,1-.42,5.46,8.13,8.13,0,0,0-.12,1.2,4.33,4.33,0,0,1-.48,1.92,2,2,0,0,0-.06,1.92.25.25,0,0,0,.36-.18c.3-.54.3-.6.78-.12a.66.66,0,0,0,.54.18,11.46,11.46,0,0,0,2.46-.12c1.14-.18,2.28-.24,3.48-.36a3.11,3.11,0,0,1,1.8.3,1.93,1.93,0,0,0,1,.12,1.57,1.57,0,0,1,.9.12c.3.18.6.42.18.72s-.42.48-.18.84a.29.29,0,0,1-.12.48,4.63,4.63,0,0,1-2.52.78c-1.44-.12-2.88.36-4.38.24a45,45,0,0,0-4.92.24c-1.56.18-3.6.12-5.16.42-1.08.18-1.86-.36-2.4-1.56.6-.48,1.68.06,2-1-.06-.3-.36-.42-.54-.66a3.8,3.8,0,0,1-.9-1.92c-.18-3.6,0-7.2-.24-10.74-.18-3-.12-6-.24-9-.06-3.18-.24-6.3-.3-9.48-.06-2.52.12-5.1-.12-7.62-.06-.6.3-.78.72-.78,1,.12,1.62-.66,2.52-.72.18,0,.3-.18.42-.36.3-.78.9-.9,1.62-1C340.92,122.78,341,123.38,341.7,123.5Zm-3.24,40.8c-.06.12,0,.18.12.18s.3-.06.36-.3,0-.3-.24-.3S338.52,164.12,338.46,164.3Zm22.26-39.72A5.3,5.3,0,0,1,362,125.9l1.08,1.74c.12,0,.18-.06.24-.06V125.9a2.93,2.93,0,0,1,.78,2.16c.12.72.18,1.44.24,2.16a2.56,2.56,0,0,0,.6,1.74c.24.24.18.54.24.84a36.13,36.13,0,0,1,.66,5.64c.12,2.22.24,4.44.24,6.66,0,1.08.06,2.16.12,3.24a8.86,8.86,0,0,1-.3,2.82,8.86,8.86,0,0,0-.3,3.06,1.66,1.66,0,0,1-.18.78.89.89,0,0,0,0,.78,14.29,14.29,0,0,1,.6,4.5c.06.9.06,1,1,1,1.5,0,3,.12,4.5.18a3.76,3.76,0,0,1,1.32.42,5.4,5.4,0,0,0,2.58.54,17.68,17.68,0,0,1,2.52.06,3.57,3.57,0,0,1,2.16,1.2.46.46,0,0,1,0,.84c-.42.24-.9.66-1.44.54-2.28-.6-4.62-.06-7-.12a54,54,0,0,0-8.76.48c-1.26.12-2.58-.12-3.9-.12-.6.06-1-.6-1.44-1,.36-.84,1.26-.66,1.86-1.2-1.5-1.14-1.62-2.82-1.68-4.44-.06-2.94.06-5.88.06-8.82a34.58,34.58,0,0,0-.12-6.6c-.6-4,.06-6.84-.12-10.8-.06-1.86.06-3.78-.18-5.7a2.13,2.13,0,0,0-.18-.66,1.27,1.27,0,0,1,1.2-1.74c.18-.06.36-.06.54-.12A1.58,1.58,0,0,1,360.72,124.58Zm1.68,38.28a2.84,2.84,0,0,0,1.74-.3C362.76,162.26,362.76,162.26,362.4,162.86Zm3.84-.54a3.78,3.78,0,0,0,2.94-.12A12,12,0,0,0,366.24,162.32Z"/><path class="cls-2" d="M395.1,124.67c.18.84.9,1.32,1.2,2.16.78,2.34.9,4.8,1.8,7.14,1.32,3.6,2.28,7.38,3.6,11,.48,1.38.78,2.82,1.2,4.2.66,2.34,1.38,4.68,2,7,.06.12.12.3.3.3a29.88,29.88,0,0,0-.3-8.94c-.3.42-.06.84-.12,1.26a9.72,9.72,0,0,1-.06,1.32c-.42-.12-.36-.42-.36-.66,0-1.5-.06-3.06-.18-4.62,0-.9.18-1.86.18-2.82,0-1.2-.12-2.34-.18-3.48a24.07,24.07,0,0,1-.12-3.6c.12-2.88.18-5.7.06-8.58a2.26,2.26,0,0,1,.6-1.26c.12-.18.42-.18.6-.18a2.81,2.81,0,0,1,1.74,1.56,54.34,54.34,0,0,1,.42,5.46c-.12,1.86,0,3.72-.06,5.64,0,1.44.18,2.88.06,4.38-.12,2.64.06,5.28,0,8,0,1.62.42,3.3.54,5,.12,2.1.6,4.14.72,6.24,0,.6.18,1.38-.18,1.62-.78.54-.3,1.08-.3,1.62,0,.3.06.54.06.84a1.73,1.73,0,0,1-1.08,1.74.45.45,0,0,1-.66-.24c-.36-.48-.78-.42-1.26-.48-1.14-.18-2.28.18-3.3-.42-.72.36-1.26-.3-1.92-.36s-1.08-.54-1.26-1.2c-.42-1.5-.9-2.94-1.26-4.44-.54-2.34-1.38-4.5-1.92-6.84-.66-3.18-1.74-6.24-2.7-9.36a63.8,63.8,0,0,1-2-7.38c-.24-1.5-.66-3-1-4.5-.42.12-.3.36-.3.48-.12,5-.24,9.9-.24,14.88,0,3.54.36,7.08.42,10.68.06,2,.42,4,.54,5.94a32.78,32.78,0,0,1,.06,3.48c-.84-.36-1.32-1-2.16-1.2-.3-.06-.48-.48-.42-.84a3.32,3.32,0,0,0-.42-1.5,2.39,2.39,0,0,1-.3-1.32c-.24-2.82-.24-5.64-.36-8.52a11.78,11.78,0,0,0-.24-2.46,2.42,2.42,0,0,1,0-.66c.24-3.42-.18-6.9-.12-10.32.06-3.9.06-7.74.06-11.64,0-.78-.06-1.62-.12-2.46,0-.48,0-.72.66-.9a3.84,3.84,0,0,1,2.46-.06,1.33,1.33,0,0,0,1-.18c1.38-.66,2.82-.48,4.2-.66C394.86,124.49,395.1,124.55,395.1,124.67Zm10.8,39.9c-.24-.48-.3-1-1-1C404.82,164.69,404.82,164.69,405.9,164.57Z"/><path class="cls-2" d="M425.22,124.54a.51.51,0,0,0,.42,0c2.52-.42,5.1-.36,7.62-.78.66-.06,1.32-.24,2-.24a3.56,3.56,0,0,1,3.12,2.1,16.54,16.54,0,0,1-4.14.66c-1.38-.06-2.7-.12-4.08-.06s-2.52.42-3.78.48c-.36,0-.54.24-.66.6a13.6,13.6,0,0,0,.18,5.16c.06.6,0,1.2,0,1.86a56.4,56.4,0,0,0,0,7.8c2-.3,3.9.24,5.82-.06,1-.18,1.5.66,2.28,1.2a2.43,2.43,0,0,1-1.32.72,6.13,6.13,0,0,0-1.74.42,14.74,14.74,0,0,1-4.32.6c-.78.06-.78.06-.72.84.06,1.44.06,2.88,0,4.38a42.26,42.26,0,0,0-.18,4.8,5.35,5.35,0,0,1-.18,1.68,12.26,12.26,0,0,0-.3,4.44c.12.6.36.78.9.72a4.77,4.77,0,0,1,1.32-.06.41.41,0,0,1,.3.42c-.66.6-1.86-.06-2.58.84a1.38,1.38,0,0,0,1.2-.06c2.1-.54,4.2-.84,6.3-1.44,1.08-.3,2.22-.12,3.3-.36a1.08,1.08,0,0,1,.84.24c.36.36.72.66,1.08,1-.36.48-1,.24-1.44.54-.12.36.24.54.36.84.3.42.18.78-.36.78a8.39,8.39,0,0,0-2.7.6,11.29,11.29,0,0,1-2,.3,27.55,27.55,0,0,0-5.46.36c-.48.12-.9.12-1,.84-.06.48-.42.54-.84.18s-.9-.18-1.38-.12a39.08,39.08,0,0,1-7,.48c-.36,0-.66-.3-1-.42a.57.57,0,0,1-.36-.6c0-.36.18-.48.48-.54a17.23,17.23,0,0,0,3-1c0-1.38-.06-2.76,0-4.2.36-4.44.12-8.64.48-13.08s.42-8.7.54-13c.06-2.16-.12-4.32-.12-6.42,0-.54-.24-.78-.72-.78-.78,0-.66-.42-1.44-.54a1,1,0,0,1-.84-.6,18,18,0,0,1,2.88-.66,6,6,0,0,0,.12-1c0-.6.06-1.08.84-1,.06,0,.18,0,.18-.06,1.08-1,2.1-.42,3.18-.06A3.57,3.57,0,0,1,425.22,124.54Zm-6.36,40c1-.12,1-.12.84-.78-.06-.42.06-1.44-.3-1.86C418.74,162.52,419,163.84,418.86,164.56Z"/><path class="cls-2" d="M442.62,160c-.9.36-1.2-.72-1.44-1.26C442.08,158.83,442.2,159.55,442.62,160Zm14.82-36.42a3.5,3.5,0,0,1,2.7,2.52l1.08,3.42a5.37,5.37,0,0,1-.12,2.76c-.06.42-.66.42-.9.84-.24.6-.66,1.14-1,1.74-.36-.12-.3-.54-.54-.72-.42.12-.18.66-.54.84-.06.06-.12.06-.18-.06a5.23,5.23,0,0,1-1.2-4.26,4.92,4.92,0,0,0-.18-2.46c-.3-1.14-1.86-2.52-2.94-2.1-.6.18-1.2.48-1.8.72a3.06,3.06,0,0,0-1.32,1.56c-.3.6-.54,1.68-.9,2.22a2.43,2.43,0,0,0,.12,2.94,32.6,32.6,0,0,1,4.38,5.22,24.23,24.23,0,0,0,3.72,3.72,20.1,20.1,0,0,1,2.94,3.42,8.59,8.59,0,0,0,1.14,1.44c1.44,1.38,1.38,3.3,1.92,5.1a16.85,16.85,0,0,1,.3,3.9,1.63,1.63,0,0,1-.72,1.62c-.36.18-.3.48-.36.78a12.47,12.47,0,0,1-1.8,4.32,2.12,2.12,0,0,1-1.5,1.08,1.26,1.26,0,0,0-.66.42,6.48,6.48,0,0,1-2.34,1.68c-.24.12-.48.3-.72.18a2.17,2.17,0,0,0-1.92.3c-1.8,1-4.8.24-7.38-1.32-.24-.18-3.78-3.54-3.9-3.72-1.26-1.74,1.92,1.44.72-.42a3.23,3.23,0,0,1-.48-1.68c0-.72-.6-1.08-.9-1.62-.12-.24-.42-.36-.48-.72.24-.18.84-.48,1.2-.12.48.54.6.24,1,.42s.42.36.9.72c.66.54.78,1.08,1.2,1.56a4.45,4.45,0,0,0,2.16,1.44c2.1.84,4.2,2.64,6.06.72a5.21,5.21,0,0,0,1.38-4,21.44,21.44,0,0,0-.72-4.44,2.09,2.09,0,0,0-.42-.9c-2.28-3.18-4.14-5.88-7-8.4a12.06,12.06,0,0,1-3.84-5.16,25.13,25.13,0,0,1-1-2.76,3.4,3.4,0,0,1,.06-1.56,49.16,49.16,0,0,1,1.38-5.1,11.45,11.45,0,0,1,4.56-5.4,2.66,2.66,0,0,1,2-.42,11.51,11.51,0,0,0,3.18-.36A12.07,12.07,0,0,1,457.44,123.61ZM451,145.09c.18-.06-.48-1.32-.9-1.8-.6-.84-1.26-1.08-1.38-1.5a9,9,0,0,0-2.46-1.56A21.48,21.48,0,0,0,451,145.09Z"/><path class="cls-2" d="M470.63,150.81c-1.57.82-2.09-1.65-2.51-2.88C469.69,148.06,469.9,149.71,470.63,150.81Zm25.79-83.22c2.3.82,4,2.46,4.7,5.76L503,81.16c.63,2.19,0,4.25-.21,6.31-.1,1-1.14,1-1.56,1.92-.42,1.37-1.15,2.6-1.67,4-.63-.27-.52-1.23-.94-1.64-.73.27-.32,1.5-.94,1.91-.11.14-.21.14-.32-.13a14.7,14.7,0,0,1-2.09-9.73,14.48,14.48,0,0,0-.31-5.63c-.52-2.6-3.24-5.75-5.12-4.79A34.88,34.88,0,0,0,486.71,75c-1.15.69-1.77,2.19-2.3,3.56s-.94,3.84-1.56,5.08c-1.05,1.51-1.05,5.48.21,6.72,3.13,3.42,5.22,8,7.62,11.92a50.74,50.74,0,0,0,6.48,8.5,44.69,44.69,0,0,1,5.11,7.82,19.59,19.59,0,0,0,2,3.29c2.5,3.15,2.4,7.54,3.34,11.65.62,2.88.42,5.9.52,8.91,0,1.37-.1,2.88-1.25,3.7-.63.41-.53,1.1-.63,1.79a33.93,33.93,0,0,1-3.13,9.87c-.63,1.23-1.46,2.33-2.61,2.46a2.25,2.25,0,0,0-1.15,1,11.88,11.88,0,0,1-4.08,3.84c-.41.28-.83.69-1.25.41-1.25-.68-2.3,0-3.34.69-3.13,2.33-8.35.55-12.85-3-.41-.41-6.58-8.09-6.78-8.5-2.2-4,3.34,3.29,1.25-1a9.16,9.16,0,0,1-.84-3.83c0-1.65-1-2.47-1.56-3.71-.21-.55-.73-.82-.84-1.64.42-.41,1.46-1.1,2.09-.28.83,1.24,1,.55,1.67,1s.73.83,1.57,1.65c1.15,1.23,1.35,2.47,2.09,3.56,1,1.92,2.19,2.33,3.76,3.29,3.65,1.92,7.31,6,10.54,1.65,2-2.74,2.41-5.62,2.41-9.05a63.44,63.44,0,0,0-1.26-10.14,5.49,5.49,0,0,0-.73-2.06c-4-7.27-7.2-13.44-12.22-19.19-2.61-2.75-5.74-7.54-6.68-11.79-.42-2.2-1.46-4.12-1.67-6.31a10.11,10.11,0,0,1,.1-3.57c.84-3.83,1.25-8,2.4-11.65a25.68,25.68,0,0,1,7.94-12.34,3.8,3.8,0,0,1,3.55-1c1.88.41,3.66-.54,5.54-.82A16.1,16.1,0,0,1,496.42,67.59Zm-11.17,49.08c.31-.14-.84-3-1.57-4.11-1-1.92-2.19-2.47-2.4-3.43-1.46-1.24-2.61-3-4.28-3.57C478.88,109.68,482.64,113.93,485.25,116.67Z"/></g></svg>