<svg xmlns="http://www.w3.org/2000/svg" viewBox="0 0 565.39 195.89"><defs><style>.cls-1{fill:#9df2f7;stroke:#ccc;stroke-miterlimit:10;opacity:0.75;}.cls-2{fill:#d1feff;}.cls-3{fill:#ccc;}.cls-4{font-size:90px;fill:#f2f2f2;font-family:Active-Regular, Active;}.cls-5{letter-spacing:-0.03em;}.cls-6{letter-spacing:-0.01em;}.cls-7{letter-spacing:0.01em;}.cls-8{letter-spacing:0em;}.cls-9{letter-spacing:0.03em;}.cls-10{letter-spacing:0em;}.cls-11{letter-spacing:0em;}.cls-12{letter-spacing:-0.01em;}</style></defs><g id="Layer_2" data-name="Layer 2"><circle class="cls-1" cx="96.14" cy="96.14" r="95.64"/><path class="cls-2" d="M185.45,55.33c-6.3,1.16-12.31.14-18.29.33-6.8.21-20.71-.8-32.82,1.37s-20.1,4-30.64,14.23c-2.89,2.8-7.28,12.4-9.75,15.64,10.8,8.2,17.09,8.59,29.39,17,2.49-2.62,5-5.22,7.61-7.66,8.93-8.38,18.83-14.83,28.65-21.18,14.8-9.57,20.07-11,34.52-21.09a20.21,20.21,0,0,0,4.38-4.69C193,54.53,191.75,54.16,185.45,55.33Z"/><path class="cls-3" d="M185.05,53.88c-4.39.78-8.85.47-13.28.31-3.27-.11-6.53,0-9.8,0a183.55,183.55,0,0,0-22.86.66,83.82,83.82,0,0,0-19.87,4.36,45.39,45.39,0,0,0-16.88,11.29c-4.2,4.52-6,10.77-9.71,15.67a1.54,1.54,0,0,0,.54,2,85.43,85.43,0,0,0,14.13,8.42,121,121,0,0,1,15.27,8.57,1.5,1.5,0,0,0,1.81-.24,151,151,0,0,1,15.73-14.62c5.45-4.28,11.21-8.13,17-11.9,5.19-3.38,10.44-6.66,15.83-9.72,4.34-2.47,8.72-4.88,13-7.52,5-3.11,10.53-6.15,13.86-11.16,1-1.46-1.15-3-2.35-1.82-1.72,1.63-3.54,3.39-5.79,4.26a35.89,35.89,0,0,1-6.6,1.41c-1.89.35-1.09,3.24.8,2.89a34.4,34.4,0,0,0,7-1.58,22.48,22.48,0,0,0,6.68-4.86l-2.36-1.82c-2.88,4.35-7.84,7-12.16,9.7s-8.64,5.11-13,7.58a279.06,279.06,0,0,0-32.26,21.06,152.13,152.13,0,0,0-17.49,16l1.82-.23A120.85,120.85,0,0,0,108.84,94,85.11,85.11,0,0,1,94.7,85.61l.54,2c3.29-4.39,5.2-9.68,8.46-14.1a32.37,32.37,0,0,1,7.07-6.39A40.16,40.16,0,0,1,119,62.5c6-2.48,12.66-3.71,19-4.53a160.57,160.57,0,0,1,22.58-.82c3.57.05,7.14-.08,10.71,0,4.87.15,9.7.45,14.54-.41C187.75,56.44,186.94,53.55,185.05,53.88Z"/><path class="cls-2" d="M182.14,126.37a60.73,60.73,0,0,1-35.68-8.76c-.58-.35-1.14-.72-1.7-1.08,1-1,2-2,3-3,8.93-8.37,18.83-14.82,28.65-21.17,14.8-9.58,20.07-11,34.52-21.09a20.21,20.21,0,0,0,4.38-4.69c-5.52,5.26-6.75,4.89-13,6.06S190,72.83,184,73c-6.8.21-20.71-.81-32.82,1.37s-20.1,4-30.64,14.22c-1.79,1.74-4.16,6.09-6.29,9.92A102.78,102.78,0,0,1,95.61,85.12C84.77,75.46,81.86,67.77,74.72,56.86c-1.41-2.16-5.5-4.72-5.65-4.76-9.84-3.19-15.35.55-24.77,4.08-9.69,3.63-12.4,7.93-20.43,14.46l-1.43,2.11A1.37,1.37,0,0,0,24,74.82a35.48,35.48,0,0,1,12.52-1.69A22.35,22.35,0,0,1,52.08,79.8c3.72,4,5.52,9.38,6.9,14.66a116.2,116.2,0,0,1,2.14,12l.23,1.29a64.84,64.84,0,0,0,54.54,50.91c9.18,1.27,22.31,1.7,31.51.54,15-1.9,26.31-6.22,39.74-13.18s25-18.62,31-32.12l1.14-3.19C209.61,118.65,194.56,125.52,182.14,126.37Z"/><path class="cls-3" d="M182.14,124.87a60.46,60.46,0,0,1-36.63-9.63l.31,2.35c9.36-9.37,20.26-16.73,31.35-23.89C185.82,88.12,195,83.46,203.69,78c4.71-3,9.78-5.84,12.92-10.58,1-1.45-1.15-2.95-2.35-1.81-2.07,2-4.19,3.9-7,4.64a46.38,46.38,0,0,1-10.73,1.53c-4.35.1-8.69-.31-13-.21-3.18.07-6.37,0-9.55-.06a129.78,129.78,0,0,0-24.67,1.74c-6.57,1.2-13.1,2.71-19,6a51.23,51.23,0,0,0-10,7.55c-3.23,3-5.21,7.18-7.34,11l2-.54c-11.46-6.55-22.22-15-29.63-26.09-3.33-5-6-10.4-9.5-15.26A18.93,18.93,0,0,0,70.22,51a11.17,11.17,0,0,0-3.41-1.1,23.25,23.25,0,0,0-5.2-.54,27.79,27.79,0,0,0-9,1.92c-3.32,1.21-6.6,2.57-9.86,3.89a47.08,47.08,0,0,0-13.85,9.13c-1.08,1-2.14,1.92-3.23,2.87a19,19,0,0,0-3.19,2.87c-1.15,1.64-2.74,3.74-.84,5.54,1.26,1.2,2.71.65,4.16.24a32,32,0,0,1,6.06-1.11,28.22,28.22,0,0,1,10.55.86,19.59,19.59,0,0,1,8.38,5,23.76,23.76,0,0,1,5,8.38,60.49,60.49,0,0,1,2.76,10.24c.53,3,.83,6,1.41,8.94a65.92,65.92,0,0,0,19,34.25,66.76,66.76,0,0,0,36.58,17.76,120.32,120.32,0,0,0,39.67-.63,103.07,103.07,0,0,0,19.57-6,120.38,120.38,0,0,0,18.32-9.14c11.06-7,20.53-17.05,26-29,.63-1.38,1.1-2.82,1.61-4.25s-1.47-2.31-2.51-1.46a72.73,72.73,0,0,1-17,10.14,59.39,59.39,0,0,1-19,5c-1.91.14-1.93,3.14,0,3a63.08,63.08,0,0,0,20.16-5.29,74.93,74.93,0,0,0,18-10.77l-2.5-1.46c-3.73,10.38-10.68,19.3-19.14,26.31A82.87,82.87,0,0,1,182,147a119.85,119.85,0,0,1-18.41,7.37c-12.59,3.76-25.54,4.6-38.6,3.75A81,81,0,0,1,106.2,155a64.26,64.26,0,0,1-17.8-8.7,63.44,63.44,0,0,1-23.24-30.53,59.35,59.35,0,0,1-2.4-8.58c-.56-2.92-.86-5.88-1.39-8.8C60.22,92,58.3,85.14,54.2,80S44,72.23,37.72,71.7a36.57,36.57,0,0,0-10.94.8,18.06,18.06,0,0,0-2.71.73s-.57.14-.43.19.08.14.11.07a7.17,7.17,0,0,1,1.35-2c.83-.82,2-1.6,2.94-2.41,1.16-1,2.29-2,3.44-3.07a51.14,51.14,0,0,1,5.94-4.73,40.35,40.35,0,0,1,7.71-3.81c3.12-1.18,6.16-2.56,9.31-3.64a22.72,22.72,0,0,1,8.71-1.39,16.22,16.22,0,0,1,5.07,1,9.92,9.92,0,0,1,1.83,1.13A18.54,18.54,0,0,1,72.94,57a24.61,24.61,0,0,1,2.45,3.69c1.56,2.5,3,5,4.58,7.55a79.81,79.81,0,0,0,10.47,14A98.56,98.56,0,0,0,106.3,95.39c2.33,1.58,4.73,3,7.18,4.43a1.52,1.52,0,0,0,2-.53c1.78-3.21,3.44-7,6-9.61a47.64,47.64,0,0,1,9.18-7.26c5.65-3.4,12-5,18.39-6.15a128.28,128.28,0,0,1,24.6-1.8c3.16,0,6.32.12,9.48.06,4.28-.08,8.55.28,12.83.22a49.66,49.66,0,0,0,12.11-1.67c3.27-.9,5.8-3.11,8.21-5.39L214,65.87c-2.73,4.11-7.28,6.6-11.36,9.2s-8,4.82-12.11,7.12a317.49,317.49,0,0,0-29.92,19,136.5,136.5,0,0,0-16.93,14.26,1.52,1.52,0,0,0,.3,2.36,63.2,63.2,0,0,0,38.14,10C184.06,127.75,184.07,124.75,182.14,124.87Z"/></g><g id="Layer_1" data-name="Layer 1"><text class="cls-4" transform="translate(239.28 77.1)"><tspan class="cls-5">T</tspan><tspan x="34.2" y="0">he Chu</tspan><tspan class="cls-6" x="233" y="0">r</tspan><tspan class="cls-7" x="257.49" y="0">c</tspan><tspan class="cls-8" x="285.38" y="0">h</tspan></text><text class="cls-4" transform="translate(286.44 168.35)"><tspan class="cls-9">I</tspan><tspan x="25.29" y="0">n Br</tspan><tspan class="cls-10" x="151.29" y="0">i</tspan><tspan class="cls-11" x="171.09" y="0">e</tspan><tspan class="cls-12" x="200.7" y="0">ll</tspan><tspan x="245.7" y="0">e</tspan></text></g></svg>