<svg id="Layer_1" data-name="Layer 1" xmlns="http://www.w3.org/2000/svg" viewBox="0 0 857.65 615.36"><defs><style>.cls-1,.cls-2,.cls-3,.cls-5{font-size:148px;font-family:Poppins-Medium, Poppins;font-weight:500;}.cls-1,.cls-2,.cls-3,.cls-4,.cls-5{fill:#fff;}.cls-1{letter-spacing:0.01em;}.cls-2{letter-spacing:0.02em;}.cls-3{letter-spacing:0.01em;}.cls-5{letter-spacing:0.03em;}</style></defs><text class="cls-1" transform="translate(0 275.27)"><tspan xml:space="preserve">MUSIC  </tspan></text><text class="cls-2" transform="translate(0 405.32)">LITURGICAL</text><text class="cls-3" transform="translate(0 529.23)">ARTS</text><path class="cls-4" d="M517.88,411.13v-2.66q0-189.51,0-379c0-7.8,3-14.42,8.27-20.07a25.43,25.43,0,0,1,15.63-8.12C543.94,1,546.05.45,548.4,0a20.76,20.76,0,0,1,0,3.2c-.64,3.66.74,6.77,2.81,9.56,4.87,6.56,9.68,13.19,14.9,19.47,4.75,5.7,9.92,11.06,15.06,16.42,4.55,4.74,9.29,9.31,14,13.9q8.1,7.88,16.31,15.62c3.28,3.09,6.71,6,10.06,9s6.54,6,9.85,9c2.65,2.37,5.42,4.6,8,7,3.1,2.89,6.24,5.78,9.07,8.93,3.61,4,7,8.22,10.35,12.5a148.21,148.21,0,0,1,14,22.12,176.89,176.89,0,0,1,15.47,41.88,148.59,148.59,0,0,1,4.35,34.56c0,6,0,12,0,18a2.47,2.47,0,0,1-.39,1.45c-1.44-2.81-2.85-5.64-4.33-8.43-4.56-8.63-9-17.35-13.77-25.83q-6.9-12.15-14.58-23.84c-4-6-8.37-11.79-12.77-17.53-3.58-4.67-7.31-9.25-11.21-13.66-3.3-3.73-6.88-7.23-10.45-10.71q-4.78-4.65-9.84-9c-2.33-2-4.8-3.85-7.31-5.63q-5.5-3.9-11.16-7.57a44.56,44.56,0,0,0-6.42-3.53c-4.77-2.08-9.6-4-14.44-5.89a46.27,46.27,0,0,0-12.23-2.88c0,.72-.08,1.29-.08,1.87L563.1,311.9c-.13,55.68-.18,111.36-.5,167,0,5.15-1.51,10.36-2.83,15.41A80.32,80.32,0,0,1,545,523.54a83,83,0,0,1-13.85,14,89.13,89.13,0,0,1-15,9.78,95.11,95.11,0,0,1-13,5.2c-11.35,3.81-22.93,4-34.57,2.26a46.6,46.6,0,0,1-13.41-3.93c-3-1.45-6.17-2.61-9.08-4.25a59,59,0,0,1-11.79-8.8,59.79,59.79,0,0,1-9.8-11.88,53.69,53.69,0,0,1-7.2-18.22,86.82,86.82,0,0,1-1.87-20.47,78.76,78.76,0,0,1,6.47-27.53,83.4,83.4,0,0,1,13.83-22.12A104,104,0,0,1,447,426.82a83.42,83.42,0,0,1,10.45-7.43,67.36,67.36,0,0,1,9.17-4.43,93.46,93.46,0,0,1,10.72-4,56.6,56.6,0,0,1,16.94-2.49c5.67.14,11.34.52,17,1A45.42,45.42,0,0,1,517.88,411.13Z"/><text/><text class="cls-5" transform="translate(568.18 275.27)">&amp;</text></svg>