<svg id="Layer_1" data-name="Layer 1" xmlns="http://www.w3.org/2000/svg" viewBox="0 0 670.35 412.2"><defs><style>.cls-1,.cls-2{fill:#fff;}.cls-2{font-size:86px;font-family:Poppins-Medium, Poppins;font-weight:500;}</style></defs><path class="cls-1" d="M275.6,403.83c1.18-7.69-156.87-38.17-185.11-96.81a50.24,50.24,0,0,1-5.32-21.28c-.45-30.34,29.6-53,46.81-66,27.33-20.6,85.69-53.55,123.41-46.81,3.4.61,14.83,3,23.4-3.19,6.78-4.9,11.45-14.94,8.51-22.34-1.72-4.35-6.65-9.26-23.4-11.71-28-4.08-48,4.74-81.92,14.9-41.1,12.3-62,18.31-80.85,11.7-2.59-.91-25.44-9.32-37.23-31.91-10-19.17-7.23-39.3-5.32-53.2,3.26-23.7,11.5-33,8.51-55.32-1-7.51-2.61-18.53-9.58-21.27-8.22-3.25-20.34,6.46-26.59,16C20.46,32.47,23.75,51.76,24.53,57,32.42,109.69-1.7,152.24.07,208.08c2.45,77.41,72.75,145.24,134,175.54C205.07,418.69,274.83,408.81,275.6,403.83Z"/><circle class="cls-1" cx="125.07" cy="93.72" r="43.09"/><path class="cls-1" d="M394.75,407c-1.19-7.69,156.86-38.17,185.1-96.81a50.08,50.08,0,0,0,5.32-21.27c.45-30.35-29.6-53-46.81-66C511,202.38,452.67,169.43,415,176.17c-3.4.61-14.83,3-23.4-3.19-6.78-4.9-11.45-14.94-8.51-22.34,1.72-4.35,6.65-9.26,23.4-11.7,28-4.09,48,4.73,81.91,14.89,41.11,12.3,62,18.31,80.86,11.7,2.58-.91,25.44-9.32,37.23-31.91,10-19.16,7.23-39.3,5.32-53.19-3.26-23.71-11.5-33-8.51-55.32,1-7.52,2.61-18.53,9.57-21.28,8.23-3.24,20.34,6.46,26.6,16,10.46,15.88,7.17,35.16,6.38,40.42-7.89,52.68,26.24,95.22,24.47,151.07-2.45,77.4-72.75,145.24-134,175.53C465.27,421.88,395.52,412,394.75,407Z"/><circle class="cls-1" cx="545.28" cy="96.91" r="43.09"/><text class="cls-2" transform="translate(103.19 311.49)">OUTREACH</text></svg>