<svg id="Layer_1" data-name="Layer 1" xmlns="http://www.w3.org/2000/svg" viewBox="0 0 685.74 965.98"><path d="M537.07,573.53c28.53,22.76,41.7,53.55,48.27,87.75,5,26.33,4.95,52.67-3.8,78.35-8.45,24.79-23.64,43.45-50.12,50.11-6.84,1.72-11,4.7-15.12,10.57-13.58,19.3-33.46,26.45-56.45,26-18-.36-35.06-5.22-51.74-11.65-1.56-.61-3.13-1.18-5.51-2.07,0,2.22,0,4,0,5.72q-.44,64.26-.92,128.5c0,4-.54,8-.92,12-.24,2.45-1.17,3.56-4.15,3.54-24.43-.21-48.87-.28-73.3,0-4.35,0-5.89-1.51-6-5.38q-.82-23.87-1.62-47.74c-.05-1.52,0-3.06,0-3.44-14.49-3.47-28.47-6.46-42.26-10.19-39.56-10.7-75.87-27.93-107.43-54.49-24-20.22-42.89-44.79-60.48-70.54-13.6-19.89-27.15-39.87-41.75-59a161.1,161.1,0,0,0-52.87-44.43c-6.44-3.44-7-6.68-3.57-13.26A31.06,31.06,0,0,0,10.86,643c2.41-23.72,16.32-37.93,40.33-40.7.3,0,.61-.08.92-.09,5.23-.05,10.87,1.1,15.58-.49,4.55-1.54,7.89-6.31,12.2-9,26.73-16.42,55.36-22.26,86.18-14.63,2.73.68,4.25-.07,6-2C183.65,563.34,189,547.82,190.17,531a266.69,266.69,0,0,0,.49-38.44c-2.46-34,1-67.29,9.24-100.23.45-1.79.82-3.61,1.2-5.42a6.62,6.62,0,0,0-.17-1.53h-4.77q-68.43,0-136.86-.12c-5.71,0-11.41-.64-17.12-1-3.47-.22-5-1.72-5-5.58q.21-44.08,0-88.15c0-4.26,1.95-5.57,5.45-5.7,13.13-.49,26.26-1.24,39.39-1.25q76.77-.07,153.56.36c3.72,0,5.35-1.1,6.7-4.52,8.91-22.62,16.89-45.47,20.62-69.62a66.15,66.15,0,0,1,1.88-7.65c1.22-4.37,4.08-6.79,8.46-8.32a35.2,35.2,0,0,0,10.51-6.14c9.26-7.69,20-12.08,32.07-15.43v-5.12c0-43.92-.13-87.84,0-131.76,0-8,.75-16,1.18-24.08.21-3.88,2-5.54,6.2-5.51q36.18.29,72.37,0c3.8,0,5.45,1.44,5.68,5,.43,6.79,1.12,13.57,1.18,20.36.2,22.73.18,45.46.24,68.2v6.17c3.17-2.83,5.71-4.94,8.07-7.23,11-10.65,22.24-21,32.82-32.1C456,53.07,471.07,49,488.11,55.15c4.64,1.68,9.22,3.56,13.72,5.6,2.79,1.26,4.66.88,6-2,3.28-7.13,7-14.09,9.79-21.42,3.43-9.09,8.39-12.77,18.17-12s17.34,5.28,21.9,13.67c7.71,14.17,11.23,28.75,1.78,43.88-3.42,5.46-2.58,9.45,2.37,13.49,3.44,2.82,7.67,4.72,11,7.66,3.85,3.4,8.75,6.92,10.3,11.39,7.74,22.36,13.08,45.43,8,69.11-2.1,9.73-2.59,18.13.72,27.81s3,20.4,4.86,30.58c2.25,12.6,5.1,25.11,7.56,37.68.61,3.08,2.66,2.8,4.86,2.82,18.25.13,36.49.25,54.74.49,4,.05,8,.54,12,.82,3.7.26,5.26,1.89,5.23,5.93q-.24,43.85,0,87.68c0,4.16-1.74,5.68-5.32,5.84-11.12.5-22.23,1.09-33.36,1.25-15.61.22-31.23.2-46.85,0-3.33,0-4.74,1-5.27,4.17-.87,5.18-2.17,10.29-2.9,15.49-2.06,14.81-5.5,29.34-12.79,42.38-7.65,13.7-10.77,28.19-12.49,43.57-2.69,24-7.06,47.73-18.29,69.56C541.62,565,539.37,569.16,537.07,573.53Zm-358.18,7.93c48.87,24.73,89.41,58.36,121.19,102.6,29.15-31.63,60.43-60.62,93.08-88.16,13.13-11.08,25.78-22.67,36.09-36.56,17.3-23.31,28.4-49.85,39.79-76.24A149,149,0,0,0,481,434.72c2.1-28.37,4.66-56.71,6.17-85.11.86-16.07,4.16-31,12.22-45.05,9.75-17,18.93-34.39,28-51.79,9.86-18.93,19.27-38.12,23.32-59.31a78.26,78.26,0,0,0,1.14-19.33c-.54-8.68-8-9.74-14.59-11.8-6-1.89-6.55,3.27-8.37,6.27-4.24,7-8,14.27-11.94,21.46-.63,1.14-1,2.39-1.64,3.78,6.65.79,12.89,2,17.15-4.5,1.61-2.45,3.73-4,6.5-1.72s2,4.82,0,7.3c-5.22,6.42-11.78,9.18-20.07,7.78-7.45-1.25-8.2-.76-11.18,6.22-.79,1.85-1.58,3.7-2.23,5.6a185.71,185.71,0,0,1-31.92,57.15A126.67,126.67,0,0,0,449,319.61c-3.94,15.23-6.82,30.73-10.16,46.11-.66,3.06-.24,7.32-5,6.8s-4.17-4.38-3.52-7.91c1.09-5.92,2-11.88,3.09-17.81,5.71-31.84,16.79-61.27,37.93-86.41a136,136,0,0,0,23.06-40.5c2.48-6.65,5-13.31,8.17-19.68,6.2-12.61,13-24.9,19.2-37.53,5.33-10.92,5.06-11,17.12-8.79a5.06,5.06,0,0,0,4.18-1.31c9.37-12.7,16.54-26.45,19.08-42.23.2-1.23-.3-3.25-1.19-3.87-5.69-4-10.83-8.23-11.9-15.36-15.47.19-29.86,8.57-34.76,19.73,4.32,6.59,9.51,10.51,17.91,7.17,1.15-.46,4.23,1.62,5.05,3.22,1.32,2.62-.84,4-3.31,4.92-9.84,3.75-18,1.06-25.14-6.53-3.4,6.4-6.67,12.53-9.91,18.67-8.29,15.69-18.47,29.81-31.7,41.92-5.89,5.39-10.69,12.45-14.49,19.56-17.18,32.21-31.38,65.79-44.27,99.92-5.72,15.18-10.76,30.6-16.33,45.84a8.81,8.81,0,0,1-4.11,4.2c-.79.41-3.37-.82-3.7-1.79a9.53,9.53,0,0,1,.07-5.69c15.84-47.87,34.49-94.59,57-139.75a120.47,120.47,0,0,1,26.05-35.11c6.79-6.31,12.44-14.17,17.38-22.1,7.73-12.45,14.05-25.77,21.66-38.31,9.25-15.23,22.6-24.28,41.07-24.42a4.53,4.53,0,0,0,3.11-1.33c9-11.18,6.48-34.09-4.88-43.08a20,20,0,0,0-7-3.51c-7.72-2.15-10.8-.21-13.52,7.19-2.26,6.14-5,12.11-7.92,19,3.8-.5,7.1-.48,10.06-1.46,3.19-1,6-1.66,7.24,2.08s-1.52,5.7-4.49,6.14c-4.36.64-8.88.18-13.28.63a12.07,12.07,0,0,0-6.28,2.33c-2.67,2.24-4.63,5.3-7.09,7.81-12.43,12.69-25.6,24.74-37.22,38.13-13.17,15.16-25.47,31-40.8,44.24-5.8,5-11.28,11.51-14.27,18.46a278.11,278.11,0,0,1-25,45.4c-25.09,37.22-45.52,76.77-59.12,119.67-.33,1-.56,2.43-1.31,2.89-1.41.89-3.43,2-4.69,1.55s-2.37-2.53-2.78-4.09c-.29-1.16.61-2.65,1-4a455,455,0,0,1,52.27-109.21c11.15-17.09,22.76-33.9,30.43-53,4.5-11.18,12.11-19.88,21-27.84,7.92-7.08,16-14.27,22.5-22.6a445.92,445.92,0,0,1,46.85-51.32l8-7.46c-6.56-2.64-12.08-5.42-17.92-7.08-9.67-2.75-19.06-1.56-27.43,4.38-2.85,2-6.73,4.62-4.85,8.38,1,1.94,5.41,2.15,8.28,3.13a1.19,1.19,0,0,0,.46,0c2.88-.19,5,.83,5.14,4,.19,3.47-2.11,4.44-5.09,4.58-6.06.28-11.68-.7-15.93-5.35a4,4,0,0,0-1.08.45c-24.2,22.33-48.54,44.5-72.5,67.08a107.78,107.78,0,0,0-24.95,36.52q-33.4,78-67,155.82c-3.6,8.37-7.13,16.78-11,25.05a5.73,5.73,0,0,1-4.1,2.81c-1.22.06-3.26-1.56-3.61-2.8-.44-1.54.21-3.59.9-5.19Q284,304.57,308.35,248.21c2.43-5.61,3.3-11.3,1.62-17.17-3.9-13.66-13.16-22.91-25.36-29.28a8.58,8.58,0,0,0-12.51,5.94c-1.86,8.12-3.42,16.32-4.68,24.55-.38,2.46.65,5.14,1,7.71,3.19-1.31,6.43-2.54,9.54-4,.62-.3.54-1.95,1.18-2.36,1.74-1.1,4.1-3,5.46-2.47s2.91,3.45,2.84,5.26-1.68,4-3.15,5.41c-6,5.95-13.27,8.13-21.82,5.86-.71,2.14-1.33,4-2,5.92-7.33,22.19-15.26,44.13-28.7,63.56A80.23,80.23,0,0,0,220,344.61c-4.27,18-8.59,36.07-12.77,54.13-6,26-10.3,52.14-8.72,79,.74,12.65,1.16,25.34,1.11,38C199.51,539.72,195.38,562.56,178.89,581.46ZM541.42,243.61a14,14,0,0,0-1.18,1.65c-13.18,25.18-26.44,50.33-39.4,75.63a34.12,34.12,0,0,0-3.42,12.38c-1.8,22-3,44.12-4.86,66.14-1.6,18.62-3.29,37.27-6.07,55.73-3.05,20.22-12.55,38.32-20.58,56.91A249.28,249.28,0,0,1,386,613.65c-3.17,2.4-3.71,4.33-2.48,7.94,11.71,34.38,53.85,44.72,75.95,38.83,9.79-2.61,16-10.2,21.48-18.22,12.29-18,24.64-35.94,36.65-54.11,6-9,11.5-18.32,16.7-27.79C547,537.2,551.65,511.82,553.89,486c1.18-13.63,4.13-26.34,11.17-38.25S576,422.83,578,409.29c2.83-19.21,7.44-38,15-55.82,9.07-21.55,9.82-43.39,4.36-65.85-4.77-19.66-10.3-39.25-10.53-59.68-.22-20-13.47-32.42-25.71-46.71-.42,16.9-5.28,31.62-12,45.85a8.45,8.45,0,0,0-.71,4.89c.95,5,1.79,10.1,3.54,14.84,3.89,10.58,4.56,21.36,3.45,32.43-1.08,10.63-1.6,21.24.95,31.82,1.49,6.21.06,12-2.69,17.9a210.74,210.74,0,0,0-10.69,28c-4.31,14.33-7.72,28.93-11.6,43.38-.79,2.91-2.43,5.41-6,3.93-3.27-1.36-3-4-2-7,2.71-8.69,5.47-17.39,7.56-26.24,4-16.85,7.35-33.81,16.3-49a13.22,13.22,0,0,0,1-9.37c-3.42-12-2.37-23.93-1-35.92C548.34,265.18,546,254.37,541.42,243.61ZM304.12,692.15c7.84,14.92,13,30.06,14.49,46.28a15.45,15.45,0,0,0,4.66,9.65,223,223,0,0,0,46.33,37.57c25.18,15.55,51.72,27.82,81.51,31.36,15.63,1.86,30.94.68,44.72-8a41,41,0,0,0,15.29-16.44c-3-.43-5.41-.75-7.84-1.15-3-.49-5.67-1.5-5-5.23s3.39-3.8,6.45-3.32c21.35,3.36,38.95-4,53.33-19.46,13.14-14.17,19.08-31.62,21-50.47,3.17-31-2.47-60.68-14.13-89.29-6.08-14.9-14.81-28.16-27.3-38.63-1.61-1.35-3.36-2.53-5.12-3.84-10.87,16-21.49,31.61-31.91,47.3-.74,1.11-.54,3.48.14,4.79q24.07,46.93-6.21,90c-2.68,3.84-5.95,7.26-8.95,10.87l.31,1.39c8.07-.6,16.27-.46,24.17-2,12.77-2.41,21.07-10.69,21.8-23.67.7-12.23-.89-24.59-1.58-36.89s-1.58-24.59-2.19-36.89c-.15-3.06,1.64-5.12,4.95-4.63,3,.45,3.65,2.63,3.48,5.52-.34,5.85-.93,11.77-.35,17.55,1,10,2.85,19.86,4.35,29.79,2,13.37,2,26.51-4.28,39-5.34,10.61-13.39,17.75-25.51,19.18-6.57.78-13.29,1.68-19.83,1.17-52-4-93.68-27.25-124.76-69.06-6.56-8.81-11.63-18.74-17.36-28.12-6.62,6.55-13.49,13.21-20.14,20.06-.82.84-1,2.85-.69,4.15a78,78,0,0,0,21.8,39.63c2.51,2.45,5,4.91,1.66,8.11s-5.59,0-7.71-2.11a86.76,86.76,0,0,1-22-36.06c-.46-1.49-1-3-1.71-5Zm.78,89.43a84.4,84.4,0,0,0,5.47-44.9c-3.1-22.18-13.12-41.41-26.35-59-24.68-32.89-56-58.39-91-79.24-21.05-12.51-44.07-17.64-68.61-13.89-17.12,2.62-32.33,9.66-46.95,20.69,19.21,6.14,30.42,20.37,41.59,35,3.37,4.4,9.09,7.07,13.92,10.25,5.51,3.63,11.63,6.42,16.77,10.48,12.17,9.61,20.52,22.34,26.16,36.56,8.25,20.79,15.71,41.89,23.37,62.91.85,2.34,1.49,4,4.39,4.41,6.7,1,13.29,3,20,3.54C250.88,770.67,278.19,772.5,304.9,781.58ZM16.13,659.71c.07,0,.84.54,1.62,1A218.63,218.63,0,0,1,70.45,705c16,18.58,28.3,39.74,41.4,60.34,33,51.9,77.56,90.07,134.91,112.91,1.41.56,2.86,1,5,1.77a16.54,16.54,0,0,0-1-1.66c-1-1-1.91-2-2.92-3-23.26-22-39.23-48.1-47.19-79.34-4.75-18.69-10.89-37-16.85-55.41-6.63-20.46-14.32-40.52-26.61-58.43C150,671.69,141.67,662.3,129.3,658a34.85,34.85,0,0,1-16.12-11.18c-4-4.93-7.7-10.06-11.68-15C87,613.88,63.16,606.08,42.94,613.12c-16.8,5.85-22.56,14.51-23.56,29.62C19,648.15,17.36,653.48,16.13,659.71ZM49.34,296v77.1c1.45.1,2.65.25,3.85.25q73.49,0,147,.09c3.35,0,4.5-1.15,5.14-4.25,5-24.3,11.17-48.17,26.64-68.41a30.85,30.85,0,0,0,2.44-4.78ZM204.26,773.17l-1,1.53c5.21,16,9.67,32.29,15.81,47.91,7.62,19.38,22.45,33.77,36.61,48.51s31.63,22.49,51.75,24c24,1.81,29.87-1.51,38.43-25.19a5.79,5.79,0,0,0,.44-1.8c0-3.94.26-7.94-.28-11.82-1.06-7.6-2.83-15.1-3.87-22.69-2.31-17-8.63-31.37-25.69-38.29-8-3.24-16.11-6.78-24.5-8.25C262.8,782,233.5,777.74,204.26,773.17Zm109.53,11.58c1.44.67,3.19,1.59,5,2.34,19.31,7.9,28.36,23.25,31.49,43,1.46,9.26,3.36,18.46,4.95,27.71,2.09,12.16-3.31,22.31-9.14,32.21a25.88,25.88,0,0,1-15,11.77c-2.35.73-3.49,1.67-3.45,4.44.16,13.6.06,27.2.09,40.8a19.4,19.4,0,0,0,.44,3h62c.08-1.17.2-2.08.2-3q0-68.4.08-136.79c0-2.81-1.28-3.84-3.46-5.19-15.44-9.62-31-19.09-46-29.38-7.68-5.26-14.28-12.1-21.29-18.16C317.8,766.45,315.83,775.4,313.79,784.75Zm14-766.93V165.59c0,9.7,0,9.71,9,13.34a2.84,2.84,0,0,0,1-.05c2.31-4.08,4.51-8.31,7-12.35,11.4-18.32,26.94-32.93,42.53-47.52a9.54,9.54,0,0,0,2.79-6.23c.22-30.14.21-60.28.24-90.41,0-1.49-.14-3-.23-4.55ZM374.7,622.3c-5.65,4.46-10.77,8.42-15.79,12.52-2.89,2.35-3.4,5.18-1.65,8.65,14.69,29,35.05,53,63.06,69.95,14.62,8.87,30.14,15.54,47.17,18.38,5,.84,9.43.09,12.47-4,5.51-7.37,11.85-14.46,15.67-22.68,10.22-22,9.92-44.14-2.14-66.2-3.45,4.84-6.61,9.34-9.82,13.79q-12.85,17.84-34.85,17.71a89.13,89.13,0,0,1-36.45-7.6C394.32,654.72,381.49,641.66,374.7,622.3ZM668.93,296.07H607.6c6.19,27.39-3.44,52-12.62,76.94h73.95ZM581,189.75c.64-1.47.86-1.85,1-2.26.3-1,.61-2.08.82-3.14,4.34-22.27-.5-43.59-6.92-64.69-.74-2.43-2.91-4.43-5.27-7.86-3.07,18-10.74,32.25-19.82,44.8C561,167.87,570.8,178.61,581,189.75Zm-291.58,3.91c13.28,7.61,21.62,18.75,28.66,31.82l16.16-37.72C317.29,176.14,303.56,184.1,289.37,193.66Z"/></svg>