
<svg xmlns="http://www.w3.org/2000/svg" width="100%" height="100%" preserveAspectRatio="none" viewBox="0 0 1920 103.489">
  <path id="Path_2204" data-name="Path 2204" d="M0-3.761s27-12.5,80-10.309S142,5.008,212,5.008,286-14.07,360-14.07,434,5.008,508,5.008,582-14.07,656-14.07,730,5.008,804,5.008,878-14.07,952-14.07s74,19.078,148,19.078,74-19.078,148-19.078,74,19.078,148,19.078,74-19.078,148-19.078,74,19.078,148,19.078,91-16.886,148-19.078,80,10.309,80,10.309V89.161H0Z" transform="translate(0 14.328)"/>
</svg>
